{"buffers":[{"uri":"09475.bin","byteLength":7536},{"byteLength":26324,"extensions":{"EXT_meshopt_compression":{"fallback":true}}}],"asset":{"version":"2.0","generator":"gltfpack 0.20"},"extensionsUsed":["KHR_mesh_quantization","EXT_meshopt_compression"],"extensionsRequired":["KHR_mesh_quantization","EXT_meshopt_compression"],"bufferViews":[{"buffer":1,"byteOffset":0,"byteLength":4864,"extensions":{"EXT_meshopt_compression":{"buffer":0,"byteOffset":0,"byteLength":1405,"byteStride":64,"mode":"ATTRIBUTES","count":76}}},{"buffer":1,"byteOffset":4864,"byteLength":196,"extensions":{"EXT_meshopt_compression":{"buffer":0,"byteOffset":1408,"byteLength":198,"byteStride":4,"mode":"ATTRIBUTES","count":49}}},{"buffer":1,"byteOffset":5060,"byteLength":3180,"extensions":{"EXT_meshopt_compression":{"buffer":0,"byteOffset":1608,"byteLength":1048,"byteStride":12,"mode":"ATTRIBUTES","filter":"EXPONENTIAL","count":265}}},{"buffer":1,"byteOffset":8240,"byteLength":17160,"extensions":{"EXT_meshopt_compression":{"buffer":0,"byteOffset":2656,"byteLength":4610,"byteStride":8,"mode":"ATTRIBUTES","filter":"QUATERNION","count":2145}}},{"buffer":1,"byteOffset":25400,"byteLength":924,"extensions":{"EXT_meshopt_compression":{"buffer":0,"byteOffset":7268,"byteLength":265,"byteStride":12,"mode":"ATTRIBUTES","filter":"EXPONENTIAL","count":77}}}],"accessors":[{"bufferView":0,"byteOffset":0,"componentType":5126,"count":76,"type":"MAT4"},{"bufferView":1,"byteOffset":0,"componentType":5126,"count":48,"type":"SCALAR","min":[0],"max":[1.56667]},{"bufferView":1,"byteOffset":192,"componentType":5126,"count":1,"type":"SCALAR","min":[0],"max":[0]},{"bufferView":2,"byteOffset":0,"componentType":5126,"count":1,"type":"VEC3"},{"bufferView":3,"byteOffset":0,"componentType":5122,"count":48,"type":"VEC4","normalized":true},{"bufferView":4,"byteOffset":0,"componentType":5126,"count":1,"type":"VEC3"},{"bufferView":2,"byteOffset":12,"componentType":5126,"count":48,"type":"VEC3"},{"bufferView":3,"byteOffset":384,"componentType":5122,"count":48,"type":"VEC4","normalized":true},{"bufferView":4,"byteOffset":12,"componentType":5126,"count":1,"type":"VEC3"},{"bufferView":2,"byteOffset":588,"componentType":5126,"count":1,"type":"VEC3"},{"bufferView":3,"byteOffset":768,"componentType":5122,"count":1,"type":"VEC4","normalized":true},{"bufferView":4,"byteOffset":24,"componentType":5126,"count":1,"type":"VEC3"},{"bufferView":2,"byteOffset":600,"componentType":5126,"count":1,"type":"VEC3"},{"bufferView":3,"byteOffset":776,"componentType":5122,"count":1,"type":"VEC4","normalized":true},{"bufferView":4,"byteOffset":36,"componentType":5126,"count":1,"type":"VEC3"},{"bufferView":2,"byteOffset":612,"componentType":5126,"count":1,"type":"VEC3"},{"bufferView":3,"byteOffset":784,"componentType":5122,"count":1,"type":"VEC4","normalized":true},{"bufferView":4,"byteOffset":48,"componentType":5126,"count":1,"type":"VEC3"},{"bufferView":2,"byteOffset":624,"componentType":5126,"count":1,"type":"VEC3"},{"bufferView":3,"byteOffset":792,"componentType":5122,"count":1,"type":"VEC4","normalized":true},{"bufferView":4,"byteOffset":60,"componentType":5126,"count":1,"type":"VEC3"},{"bufferView":2,"byteOffset":636,"componentType":5126,"count":1,"type":"VEC3"},{"bufferView":3,"byteOffset":800,"componentType":5122,"count":48,"type":"VEC4","normalized":true},{"bufferView":4,"byteOffset":72,"componentType":5126,"count":1,"type":"VEC3"},{"bufferView":2,"byteOffset":648,"componentType":5126,"count":1,"type":"VEC3"},{"bufferView":3,"byteOffset":1184,"componentType":5122,"count":48,"type":"VEC4","normalized":true},{"bufferView":4,"byteOffset":84,"componentType":5126,"count":1,"type":"VEC3"},{"bufferView":2,"byteOffset":660,"componentType":5126,"count":1,"type":"VEC3"},{"bufferView":3,"byteOffset":1568,"componentType":5122,"count":48,"type":"VEC4","normalized":true},{"bufferView":4,"byteOffset":96,"componentType":5126,"count":1,"type":"VEC3"},{"bufferView":2,"byteOffset":672,"componentType":5126,"count":1,"type":"VEC3"},{"bufferView":3,"byteOffset":1952,"componentType":5122,"count":48,"type":"VEC4","normalized":true},{"bufferView":4,"byteOffset":108,"componentType":5126,"count":1,"type":"VEC3"},{"bufferView":2,"byteOffset":684,"componentType":5126,"count":1,"type":"VEC3"},{"bufferView":3,"byteOffset":2336,"componentType":5122,"count":48,"type":"VEC4","normalized":true},{"bufferView":4,"byteOffset":120,"componentType":5126,"count":1,"type":"VEC3"},{"bufferView":2,"byteOffset":696,"componentType":5126,"count":1,"type":"VEC3"},{"bufferView":3,"byteOffset":2720,"componentType":5122,"count":48,"type":"VEC4","normalized":true},{"bufferView":4,"byteOffset":132,"componentType":5126,"count":1,"type":"VEC3"},{"bufferView":2,"byteOffset":708,"componentType":5126,"count":1,"type":"VEC3"},{"bufferView":3,"byteOffset":3104,"componentType":5122,"count":48,"type":"VEC4","normalized":true},{"bufferView":4,"byteOffset":144,"componentType":5126,"count":1,"type":"VEC3"},{"bufferView":2,"byteOffset":720,"componentType":5126,"count":1,"type":"VEC3"},{"bufferView":3,"byteOffset":3488,"componentType":5122,"count":48,"type":"VEC4","normalized":true},{"bufferView":4,"byteOffset":156,"componentType":5126,"count":1,"type":"VEC3"},{"bufferView":2,"byteOffset":732,"componentType":5126,"count":1,"type":"VEC3"},{"bufferView":3,"byteOffset":3872,"componentType":5122,"count":48,"type":"VEC4","normalized":true},{"bufferView":4,"byteOffset":168,"componentType":5126,"count":1,"type":"VEC3"},{"bufferView":2,"byteOffset":744,"componentType":5126,"count":1,"type":"VEC3"},{"bufferView":3,"byteOffset":4256,"componentType":5122,"count":48,"type":"VEC4","normalized":true},{"bufferView":4,"byteOffset":180,"componentType":5126,"count":1,"type":"VEC3"},{"bufferView":2,"byteOffset":756,"componentType":5126,"count":1,"type":"VEC3"},{"bufferView":3,"byteOffset":4640,"componentType":5122,"count":48,"type":"VEC4","normalized":true},{"bufferView":4,"byteOffset":192,"componentType":5126,"count":1,"type":"VEC3"},{"bufferView":2,"byteOffset":768,"componentType":5126,"count":1,"type":"VEC3"},{"bufferView":3,"byteOffset":5024,"componentType":5122,"count":48,"type":"VEC4","normalized":true},{"bufferView":4,"byteOffset":204,"componentType":5126,"count":1,"type":"VEC3"},{"bufferView":2,"byteOffset":780,"componentType":5126,"count":1,"type":"VEC3"},{"bufferView":3,"byteOffset":5408,"componentType":5122,"count":48,"type":"VEC4","normalized":true},{"bufferView":4,"byteOffset":216,"componentType":5126,"count":1,"type":"VEC3"},{"bufferView":2,"byteOffset":792,"componentType":5126,"count":1,"type":"VEC3"},{"bufferView":3,"byteOffset":5792,"componentType":5122,"count":48,"type":"VEC4","normalized":true},{"bufferView":4,"byteOffset":228,"componentType":5126,"count":1,"type":"VEC3"},{"bufferView":2,"byteOffset":804,"componentType":5126,"count":1,"type":"VEC3"},{"bufferView":3,"byteOffset":6176,"componentType":5122,"count":1,"type":"VEC4","normalized":true},{"bufferView":4,"byteOffset":240,"componentType":5126,"count":1,"type":"VEC3"},{"bufferView":2,"byteOffset":816,"componentType":5126,"count":1,"type":"VEC3"},{"bufferView":3,"byteOffset":6184,"componentType":5122,"count":1,"type":"VEC4","normalized":true},{"bufferView":4,"byteOffset":252,"componentType":5126,"count":1,"type":"VEC3"},{"bufferView":2,"byteOffset":828,"componentType":5126,"count":1,"type":"VEC3"},{"bufferView":3,"byteOffset":6192,"componentType":5122,"count":1,"type":"VEC4","normalized":true},{"bufferView":4,"byteOffset":264,"componentType":5126,"count":1,"type":"VEC3"},{"bufferView":2,"byteOffset":840,"componentType":5126,"count":1,"type":"VEC3"},{"bufferView":3,"byteOffset":6200,"componentType":5122,"count":1,"type":"VEC4","normalized":true},{"bufferView":4,"byteOffset":276,"componentType":5126,"count":1,"type":"VEC3"},{"bufferView":2,"byteOffset":852,"componentType":5126,"count":1,"type":"VEC3"},{"bufferView":3,"byteOffset":6208,"componentType":5122,"count":1,"type":"VEC4","normalized":true},{"bufferView":4,"byteOffset":288,"componentType":5126,"count":1,"type":"VEC3"},{"bufferView":2,"byteOffset":864,"componentType":5126,"count":1,"type":"VEC3"},{"bufferView":3,"byteOffset":6216,"componentType":5122,"count":1,"type":"VEC4","normalized":true},{"bufferView":4,"byteOffset":300,"componentType":5126,"count":1,"type":"VEC3"},{"bufferView":2,"byteOffset":876,"componentType":5126,"count":1,"type":"VEC3"},{"bufferView":3,"byteOffset":6224,"componentType":5122,"count":1,"type":"VEC4","normalized":true},{"bufferView":4,"byteOffset":312,"componentType":5126,"count":1,"type":"VEC3"},{"bufferView":2,"byteOffset":888,"componentType":5126,"count":1,"type":"VEC3"},{"bufferView":3,"byteOffset":6232,"componentType":5122,"count":1,"type":"VEC4","normalized":true},{"bufferView":4,"byteOffset":324,"componentType":5126,"count":1,"type":"VEC3"},{"bufferView":2,"byteOffset":900,"componentType":5126,"count":1,"type":"VEC3"},{"bufferView":3,"byteOffset":6240,"componentType":5122,"count":1,"type":"VEC4","normalized":true},{"bufferView":4,"byteOffset":336,"componentType":5126,"count":1,"type":"VEC3"},{"bufferView":2,"byteOffset":912,"componentType":5126,"count":1,"type":"VEC3"},{"bufferView":3,"byteOffset":6248,"componentType":5122,"count":1,"type":"VEC4","normalized":true},{"bufferView":4,"byteOffset":348,"componentType":5126,"count":1,"type":"VEC3"},{"bufferView":2,"byteOffset":924,"componentType":5126,"count":1,"type":"VEC3"},{"bufferView":3,"byteOffset":6256,"componentType":5122,"count":1,"type":"VEC4","normalized":true},{"bufferView":4,"byteOffset":360,"componentType":5126,"count":1,"type":"VEC3"},{"bufferView":2,"byteOffset":936,"componentType":5126,"count":1,"type":"VEC3"},{"bufferView":3,"byteOffset":6264,"componentType":5122,"count":1,"type":"VEC4","normalized":true},{"bufferView":4,"byteOffset":372,"componentType":5126,"count":1,"type":"VEC3"},{"bufferView":2,"byteOffset":948,"componentType":5126,"count":1,"type":"VEC3"},{"bufferView":3,"byteOffset":6272,"componentType":5122,"count":1,"type":"VEC4","normalized":true},{"bufferView":4,"byteOffset":384,"componentType":5126,"count":1,"type":"VEC3"},{"bufferView":2,"byteOffset":960,"componentType":5126,"count":1,"type":"VEC3"},{"bufferView":3,"byteOffset":6280,"componentType":5122,"count":1,"type":"VEC4","normalized":true},{"bufferView":4,"byteOffset":396,"componentType":5126,"count":1,"type":"VEC3"},{"bufferView":2,"byteOffset":972,"componentType":5126,"count":1,"type":"VEC3"},{"bufferView":3,"byteOffset":6288,"componentType":5122,"count":1,"type":"VEC4","normalized":true},{"bufferView":4,"byteOffset":408,"componentType":5126,"count":1,"type":"VEC3"},{"bufferView":2,"byteOffset":984,"componentType":5126,"count":1,"type":"VEC3"},{"bufferView":3,"byteOffset":6296,"componentType":5122,"count":1,"type":"VEC4","normalized":true},{"bufferView":4,"byteOffset":420,"componentType":5126,"count":1,"type":"VEC3"},{"bufferView":2,"byteOffset":996,"componentType":5126,"count":1,"type":"VEC3"},{"bufferView":3,"byteOffset":6304,"componentType":5122,"count":1,"type":"VEC4","normalized":true},{"bufferView":4,"byteOffset":432,"componentType":5126,"count":1,"type":"VEC3"},{"bufferView":2,"byteOffset":1008,"componentType":5126,"count":1,"type":"VEC3"},{"bufferView":3,"byteOffset":6312,"componentType":5122,"count":1,"type":"VEC4","normalized":true},{"bufferView":4,"byteOffset":444,"componentType":5126,"count":1,"type":"VEC3"},{"bufferView":2,"byteOffset":1020,"componentType":5126,"count":1,"type":"VEC3"},{"bufferView":3,"byteOffset":6320,"componentType":5122,"count":1,"type":"VEC4","normalized":true},{"bufferView":4,"byteOffset":456,"componentType":5126,"count":1,"type":"VEC3"},{"bufferView":2,"byteOffset":1032,"componentType":5126,"count":1,"type":"VEC3"},{"bufferView":3,"byteOffset":6328,"componentType":5122,"count":1,"type":"VEC4","normalized":true},{"bufferView":4,"byteOffset":468,"componentType":5126,"count":1,"type":"VEC3"},{"bufferView":2,"byteOffset":1044,"componentType":5126,"count":1,"type":"VEC3"},{"bufferView":3,"byteOffset":6336,"componentType":5122,"count":1,"type":"VEC4","normalized":true},{"bufferView":4,"byteOffset":480,"componentType":5126,"count":1,"type":"VEC3"},{"bufferView":2,"byteOffset":1056,"componentType":5126,"count":1,"type":"VEC3"},{"bufferView":3,"byteOffset":6344,"componentType":5122,"count":1,"type":"VEC4","normalized":true},{"bufferView":4,"byteOffset":492,"componentType":5126,"count":1,"type":"VEC3"},{"bufferView":2,"byteOffset":1068,"componentType":5126,"count":1,"type":"VEC3"},{"bufferView":3,"byteOffset":6352,"componentType":5122,"count":1,"type":"VEC4","normalized":true},{"bufferView":4,"byteOffset":504,"componentType":5126,"count":1,"type":"VEC3"},{"bufferView":2,"byteOffset":1080,"componentType":5126,"count":1,"type":"VEC3"},{"bufferView":3,"byteOffset":6360,"componentType":5122,"count":1,"type":"VEC4","normalized":true},{"bufferView":4,"byteOffset":516,"componentType":5126,"count":1,"type":"VEC3"},{"bufferView":2,"byteOffset":1092,"componentType":5126,"count":1,"type":"VEC3"},{"bufferView":3,"byteOffset":6368,"componentType":5122,"count":1,"type":"VEC4","normalized":true},{"bufferView":4,"byteOffset":528,"componentType":5126,"count":1,"type":"VEC3"},{"bufferView":2,"byteOffset":1104,"componentType":5126,"count":1,"type":"VEC3"},{"bufferView":3,"byteOffset":6376,"componentType":5122,"count":48,"type":"VEC4","normalized":true},{"bufferView":4,"byteOffset":540,"componentType":5126,"count":1,"type":"VEC3"},{"bufferView":2,"byteOffset":1116,"componentType":5126,"count":1,"type":"VEC3"},{"bufferView":3,"byteOffset":6760,"componentType":5122,"count":48,"type":"VEC4","normalized":true},{"bufferView":4,"byteOffset":552,"componentType":5126,"count":1,"type":"VEC3"},{"bufferView":2,"byteOffset":1128,"componentType":5126,"count":1,"type":"VEC3"},{"bufferView":3,"byteOffset":7144,"componentType":5122,"count":48,"type":"VEC4","normalized":true},{"bufferView":4,"byteOffset":564,"componentType":5126,"count":1,"type":"VEC3"},{"bufferView":2,"byteOffset":1140,"componentType":5126,"count":1,"type":"VEC3"},{"bufferView":3,"byteOffset":7528,"componentType":5122,"count":48,"type":"VEC4","normalized":true},{"bufferView":4,"byteOffset":576,"componentType":5126,"count":1,"type":"VEC3"},{"bufferView":2,"byteOffset":1152,"componentType":5126,"count":1,"type":"VEC3"},{"bufferView":3,"byteOffset":7912,"componentType":5122,"count":48,"type":"VEC4","normalized":true},{"bufferView":4,"byteOffset":588,"componentType":5126,"count":1,"type":"VEC3"},{"bufferView":2,"byteOffset":1164,"componentType":5126,"count":1,"type":"VEC3"},{"bufferView":3,"byteOffset":8296,"componentType":5122,"count":48,"type":"VEC4","normalized":true},{"bufferView":4,"byteOffset":600,"componentType":5126,"count":1,"type":"VEC3"},{"bufferView":2,"byteOffset":1176,"componentType":5126,"count":1,"type":"VEC3"},{"bufferView":3,"byteOffset":8680,"componentType":5122,"count":48,"type":"VEC4","normalized":true},{"bufferView":4,"byteOffset":612,"componentType":5126,"count":1,"type":"VEC3"},{"bufferView":2,"byteOffset":1188,"componentType":5126,"count":1,"type":"VEC3"},{"bufferView":3,"byteOffset":9064,"componentType":5122,"count":48,"type":"VEC4","normalized":true},{"bufferView":4,"byteOffset":624,"componentType":5126,"count":1,"type":"VEC3"},{"bufferView":2,"byteOffset":1200,"componentType":5126,"count":1,"type":"VEC3"},{"bufferView":3,"byteOffset":9448,"componentType":5122,"count":48,"type":"VEC4","normalized":true},{"bufferView":4,"byteOffset":636,"componentType":5126,"count":1,"type":"VEC3"},{"bufferView":2,"byteOffset":1212,"componentType":5126,"count":1,"type":"VEC3"},{"bufferView":3,"byteOffset":9832,"componentType":5122,"count":48,"type":"VEC4","normalized":true},{"bufferView":4,"byteOffset":648,"componentType":5126,"count":1,"type":"VEC3"},{"bufferView":2,"byteOffset":1224,"componentType":5126,"count":1,"type":"VEC3"},{"bufferView":3,"byteOffset":10216,"componentType":5122,"count":48,"type":"VEC4","normalized":true},{"bufferView":4,"byteOffset":660,"componentType":5126,"count":1,"type":"VEC3"},{"bufferView":2,"byteOffset":1236,"componentType":5126,"count":1,"type":"VEC3"},{"bufferView":3,"byteOffset":10600,"componentType":5122,"count":48,"type":"VEC4","normalized":true},{"bufferView":4,"byteOffset":672,"componentType":5126,"count":1,"type":"VEC3"},{"bufferView":2,"byteOffset":1248,"componentType":5126,"count":1,"type":"VEC3"},{"bufferView":3,"byteOffset":10984,"componentType":5122,"count":48,"type":"VEC4","normalized":true},{"bufferView":4,"byteOffset":684,"componentType":5126,"count":1,"type":"VEC3"},{"bufferView":2,"byteOffset":1260,"componentType":5126,"count":1,"type":"VEC3"},{"bufferView":3,"byteOffset":11368,"componentType":5122,"count":48,"type":"VEC4","normalized":true},{"bufferView":4,"byteOffset":696,"componentType":5126,"count":1,"type":"VEC3"},{"bufferView":2,"byteOffset":1272,"componentType":5126,"count":1,"type":"VEC3"},{"bufferView":3,"byteOffset":11752,"componentType":5122,"count":48,"type":"VEC4","normalized":true},{"bufferView":4,"byteOffset":708,"componentType":5126,"count":1,"type":"VEC3"},{"bufferView":2,"byteOffset":1284,"componentType":5126,"count":1,"type":"VEC3"},{"bufferView":3,"byteOffset":12136,"componentType":5122,"count":48,"type":"VEC4","normalized":true},{"bufferView":4,"byteOffset":720,"componentType":5126,"count":1,"type":"VEC3"},{"bufferView":2,"byteOffset":1296,"componentType":5126,"count":1,"type":"VEC3"},{"bufferView":3,"byteOffset":12520,"componentType":5122,"count":48,"type":"VEC4","normalized":true},{"bufferView":4,"byteOffset":732,"componentType":5126,"count":1,"type":"VEC3"},{"bufferView":2,"byteOffset":1308,"componentType":5126,"count":1,"type":"VEC3"},{"bufferView":3,"byteOffset":12904,"componentType":5122,"count":48,"type":"VEC4","normalized":true},{"bufferView":4,"byteOffset":744,"componentType":5126,"count":1,"type":"VEC3"},{"bufferView":2,"byteOffset":1320,"componentType":5126,"count":1,"type":"VEC3"},{"bufferView":3,"byteOffset":13288,"componentType":5122,"count":1,"type":"VEC4","normalized":true},{"bufferView":4,"byteOffset":756,"componentType":5126,"count":1,"type":"VEC3"},{"bufferView":2,"byteOffset":1332,"componentType":5126,"count":1,"type":"VEC3"},{"bufferView":3,"byteOffset":13296,"componentType":5122,"count":48,"type":"VEC4","normalized":true},{"bufferView":4,"byteOffset":768,"componentType":5126,"count":1,"type":"VEC3"},{"bufferView":2,"byteOffset":1344,"componentType":5126,"count":1,"type":"VEC3"},{"bufferView":3,"byteOffset":13680,"componentType":5122,"count":48,"type":"VEC4","normalized":true},{"bufferView":4,"byteOffset":780,"componentType":5126,"count":1,"type":"VEC3"},{"bufferView":2,"byteOffset":1356,"componentType":5126,"count":1,"type":"VEC3"},{"bufferView":3,"byteOffset":14064,"componentType":5122,"count":48,"type":"VEC4","normalized":true},{"bufferView":4,"byteOffset":792,"componentType":5126,"count":1,"type":"VEC3"},{"bufferView":2,"byteOffset":1368,"componentType":5126,"count":1,"type":"VEC3"},{"bufferView":3,"byteOffset":14448,"componentType":5122,"count":1,"type":"VEC4","normalized":true},{"bufferView":4,"byteOffset":804,"componentType":5126,"count":1,"type":"VEC3"},{"bufferView":2,"byteOffset":1380,"componentType":5126,"count":48,"type":"VEC3"},{"bufferView":3,"byteOffset":14456,"componentType":5122,"count":48,"type":"VEC4","normalized":true},{"bufferView":4,"byteOffset":816,"componentType":5126,"count":1,"type":"VEC3"},{"bufferView":2,"byteOffset":1956,"componentType":5126,"count":1,"type":"VEC3"},{"bufferView":3,"byteOffset":14840,"componentType":5122,"count":48,"type":"VEC4","normalized":true},{"bufferView":4,"byteOffset":828,"componentType":5126,"count":1,"type":"VEC3"},{"bufferView":2,"byteOffset":1968,"componentType":5126,"count":1,"type":"VEC3"},{"bufferView":3,"byteOffset":15224,"componentType":5122,"count":48,"type":"VEC4","normalized":true},{"bufferView":4,"byteOffset":840,"componentType":5126,"count":1,"type":"VEC3"},{"bufferView":2,"byteOffset":1980,"componentType":5126,"count":1,"type":"VEC3"},{"bufferView":3,"byteOffset":15608,"componentType":5122,"count":1,"type":"VEC4","normalized":true},{"bufferView":4,"byteOffset":852,"componentType":5126,"count":1,"type":"VEC3"},{"bufferView":2,"byteOffset":1992,"componentType":5126,"count":48,"type":"VEC3"},{"bufferView":3,"byteOffset":15616,"componentType":5122,"count":48,"type":"VEC4","normalized":true},{"bufferView":4,"byteOffset":864,"componentType":5126,"count":1,"type":"VEC3"},{"bufferView":2,"byteOffset":2568,"componentType":5126,"count":1,"type":"VEC3"},{"bufferView":3,"byteOffset":16000,"componentType":5122,"count":48,"type":"VEC4","normalized":true},{"bufferView":4,"byteOffset":876,"componentType":5126,"count":1,"type":"VEC3"},{"bufferView":2,"byteOffset":2580,"componentType":5126,"count":1,"type":"VEC3"},{"bufferView":3,"byteOffset":16384,"componentType":5122,"count":48,"type":"VEC4","normalized":true},{"bufferView":4,"byteOffset":888,"componentType":5126,"count":1,"type":"VEC3"},{"bufferView":2,"byteOffset":2592,"componentType":5126,"count":1,"type":"VEC3"},{"bufferView":3,"byteOffset":16768,"componentType":5122,"count":1,"type":"VEC4","normalized":true},{"bufferView":4,"byteOffset":900,"componentType":5126,"count":1,"type":"VEC3"},{"bufferView":2,"byteOffset":2604,"componentType":5126,"count":48,"type":"VEC3"},{"bufferView":3,"byteOffset":16776,"componentType":5122,"count":48,"type":"VEC4","normalized":true},{"bufferView":4,"byteOffset":912,"componentType":5126,"count":1,"type":"VEC3"}],"skins":[{"name":"Bip001","joints":[75,74,65,64,63,14,3,2,1,0,7,6,5,4,11,10,9,8,13,12,38,35,31,30,17,16,15,20,19,18,23,22,21,26,25,24,29,28,27,32,34,33,37,36,62,59,55,54,41,40,39,44,43,42,47,46,45,50,49,48,53,52,51,56,58,57,61,60,69,68,67,66,73,72,71,70],"inverseBindMatrices":0}],"animations":[{"name":"Bip001|Take 001|BaseLayer","samplers":[{"input":2,"output":3,"interpolation":"STEP"},{"input":1,"output":4},{"input":2,"output":5,"interpolation":"STEP"},{"input":1,"output":6},{"input":1,"output":7},{"input":2,"output":8,"interpolation":"STEP"},{"input":2,"output":9,"interpolation":"STEP"},{"input":2,"output":10,"interpolation":"STEP"},{"input":2,"output":11,"interpolation":"STEP"},{"input":2,"output":12,"interpolation":"STEP"},{"input":2,"output":13,"interpolation":"STEP"},{"input":2,"output":14,"interpolation":"STEP"},{"input":2,"output":15,"interpolation":"STEP"},{"input":2,"output":16},{"input":2,"output":17},{"input":2,"output":18},{"input":2,"output":19},{"input":2,"output":20,"interpolation":"STEP"},{"input":2,"output":21},{"input":1,"output":22},{"input":2,"output":23,"interpolation":"STEP"},{"input":2,"output":24},{"input":1,"output":25},{"input":2,"output":26},{"input":2,"output":27},{"input":1,"output":28},{"input":2,"output":29},{"input":2,"output":30},{"input":1,"output":31},{"input":2,"output":32,"interpolation":"STEP"},{"input":2,"output":33},{"input":1,"output":34},{"input":2,"output":35,"interpolation":"STEP"},{"input":2,"output":36},{"input":1,"output":37},{"input":2,"output":38},{"input":2,"output":39},{"input":1,"output":40},{"input":2,"output":41},{"input":2,"output":42},{"input":1,"output":43},{"input":2,"output":44,"interpolation":"STEP"},{"input":2,"output":45},{"input":1,"output":46},{"input":2,"output":47,"interpolation":"STEP"},{"input":2,"output":48},{"input":1,"output":49},{"input":2,"output":50},{"input":2,"output":51},{"input":1,"output":52},{"input":2,"output":53,"interpolation":"STEP"},{"input":2,"output":54},{"input":1,"output":55},{"input":2,"output":56},{"input":2,"output":57},{"input":1,"output":58},{"input":2,"output":59},{"input":2,"output":60},{"input":1,"output":61},{"input":2,"output":62},{"input":2,"output":63},{"input":2,"output":64},{"input":2,"output":65,"interpolation":"STEP"},{"input":2,"output":66},{"input":2,"output":67},{"input":2,"output":68,"interpolation":"STEP"},{"input":2,"output":69},{"input":2,"output":70},{"input":2,"output":71,"interpolation":"STEP"},{"input":2,"output":72},{"input":2,"output":73},{"input":2,"output":74},{"input":2,"output":75},{"input":2,"output":76},{"input":2,"output":77,"interpolation":"STEP"},{"input":2,"output":78},{"input":2,"output":79},{"input":2,"output":80},{"input":2,"output":81},{"input":2,"output":82},{"input":2,"output":83,"interpolation":"STEP"},{"input":2,"output":84},{"input":2,"output":85},{"input":2,"output":86},{"input":2,"output":87},{"input":2,"output":88},{"input":2,"output":89,"interpolation":"STEP"},{"input":2,"output":90},{"input":2,"output":91},{"input":2,"output":92},{"input":2,"output":93},{"input":2,"output":94},{"input":2,"output":95},{"input":2,"output":96},{"input":2,"output":97},{"input":2,"output":98,"interpolation":"STEP"},{"input":2,"output":99},{"input":2,"output":100},{"input":2,"output":101,"interpolation":"STEP"},{"input":2,"output":102},{"input":2,"output":103},{"input":2,"output":104},{"input":2,"output":105},{"input":2,"output":106},{"input":2,"output":107,"interpolation":"STEP"},{"input":2,"output":108},{"input":2,"output":109},{"input":2,"output":110,"interpolation":"STEP"},{"input":2,"output":111},{"input":2,"output":112},{"input":2,"output":113,"interpolation":"STEP"},{"input":2,"output":114},{"input":2,"output":115},{"input":2,"output":116,"interpolation":"STEP"},{"input":2,"output":117},{"input":2,"output":118},{"input":2,"output":119,"interpolation":"STEP"},{"input":2,"output":120},{"input":2,"output":121},{"input":2,"output":122},{"input":2,"output":123},{"input":2,"output":124},{"input":2,"output":125},{"input":2,"output":126},{"input":2,"output":127},{"input":2,"output":128,"interpolation":"STEP"},{"input":2,"output":129},{"input":2,"output":130},{"input":2,"output":131,"interpolation":"STEP"},{"input":2,"output":132},{"input":2,"output":133},{"input":2,"output":134,"interpolation":"STEP"},{"input":2,"output":135},{"input":2,"output":136},{"input":2,"output":137,"interpolation":"STEP"},{"input":2,"output":138},{"input":1,"output":139},{"input":2,"output":140,"interpolation":"STEP"},{"input":2,"output":141},{"input":1,"output":142},{"input":2,"output":143,"interpolation":"STEP"},{"input":2,"output":144},{"input":1,"output":145},{"input":2,"output":146,"interpolation":"STEP"},{"input":2,"output":147},{"input":1,"output":148},{"input":2,"output":149,"interpolation":"STEP"},{"input":2,"output":150},{"input":1,"output":151},{"input":2,"output":152},{"input":2,"output":153},{"input":1,"output":154},{"input":2,"output":155},{"input":2,"output":156},{"input":1,"output":157},{"input":2,"output":158},{"input":2,"output":159},{"input":1,"output":160},{"input":2,"output":161,"interpolation":"STEP"},{"input":2,"output":162},{"input":1,"output":163},{"input":2,"output":164,"interpolation":"STEP"},{"input":2,"output":165},{"input":1,"output":166},{"input":2,"output":167,"interpolation":"STEP"},{"input":2,"output":168},{"input":1,"output":169},{"input":2,"output":170,"interpolation":"STEP"},{"input":2,"output":171},{"input":1,"output":172},{"input":2,"output":173,"interpolation":"STEP"},{"input":2,"output":174},{"input":1,"output":175},{"input":2,"output":176},{"input":2,"output":177},{"input":1,"output":178},{"input":2,"output":179},{"input":2,"output":180},{"input":1,"output":181},{"input":2,"output":182,"interpolation":"STEP"},{"input":2,"output":183},{"input":1,"output":184},{"input":2,"output":185,"interpolation":"STEP"},{"input":2,"output":186},{"input":1,"output":187},{"input":2,"output":188,"interpolation":"STEP"},{"input":2,"output":189},{"input":1,"output":190},{"input":2,"output":191,"interpolation":"STEP"},{"input":2,"output":192},{"input":2,"output":193},{"input":2,"output":194,"interpolation":"STEP"},{"input":2,"output":195},{"input":1,"output":196},{"input":2,"output":197,"interpolation":"STEP"},{"input":2,"output":198},{"input":1,"output":199},{"input":2,"output":200},{"input":2,"output":201},{"input":1,"output":202},{"input":2,"output":203,"interpolation":"STEP"},{"input":2,"output":204},{"input":2,"output":205},{"input":2,"output":206},{"input":1,"output":207},{"input":1,"output":208},{"input":2,"output":209},{"input":2,"output":210},{"input":1,"output":211},{"input":2,"output":212},{"input":2,"output":213},{"input":1,"output":214},{"input":2,"output":215},{"input":2,"output":216},{"input":2,"output":217},{"input":2,"output":218,"interpolation":"STEP"},{"input":1,"output":219},{"input":1,"output":220},{"input":2,"output":221,"interpolation":"STEP"},{"input":2,"output":222},{"input":1,"output":223},{"input":2,"output":224,"interpolation":"STEP"},{"input":2,"output":225},{"input":1,"output":226},{"input":2,"output":227},{"input":2,"output":228},{"input":2,"output":229},{"input":2,"output":230},{"input":1,"output":231},{"input":1,"output":232},{"input":2,"output":233,"interpolation":"STEP"}],"channels":[{"sampler":0,"target":{"node":75,"path":"translation"}},{"sampler":1,"target":{"node":75,"path":"rotation"}},{"sampler":2,"target":{"node":75,"path":"scale"}},{"sampler":3,"target":{"node":74,"path":"translation"}},{"sampler":4,"target":{"node":74,"path":"rotation"}},{"sampler":5,"target":{"node":74,"path":"scale"}},{"sampler":6,"target":{"node":65,"path":"translation"}},{"sampler":7,"target":{"node":65,"path":"rotation"}},{"sampler":8,"target":{"node":65,"path":"scale"}},{"sampler":9,"target":{"node":64,"path":"translation"}},{"sampler":10,"target":{"node":64,"path":"rotation"}},{"sampler":11,"target":{"node":64,"path":"scale"}},{"sampler":12,"target":{"node":63,"path":"translation"}},{"sampler":13,"target":{"node":63,"path":"rotation"}},{"sampler":14,"target":{"node":63,"path":"scale"}},{"sampler":15,"target":{"node":14,"path":"translation"}},{"sampler":16,"target":{"node":14,"path":"rotation"}},{"sampler":17,"target":{"node":14,"path":"scale"}},{"sampler":18,"target":{"node":3,"path":"translation"}},{"sampler":19,"target":{"node":3,"path":"rotation"}},{"sampler":20,"target":{"node":3,"path":"scale"}},{"sampler":21,"target":{"node":2,"path":"translation"}},{"sampler":22,"target":{"node":2,"path":"rotation"}},{"sampler":23,"target":{"node":2,"path":"scale"}},{"sampler":24,"target":{"node":1,"path":"translation"}},{"sampler":25,"target":{"node":1,"path":"rotation"}},{"sampler":26,"target":{"node":1,"path":"scale"}},{"sampler":27,"target":{"node":0,"path":"translation"}},{"sampler":28,"target":{"node":0,"path":"rotation"}},{"sampler":29,"target":{"node":0,"path":"scale"}},{"sampler":30,"target":{"node":7,"path":"translation"}},{"sampler":31,"target":{"node":7,"path":"rotation"}},{"sampler":32,"target":{"node":7,"path":"scale"}},{"sampler":33,"target":{"node":6,"path":"translation"}},{"sampler":34,"target":{"node":6,"path":"rotation"}},{"sampler":35,"target":{"node":6,"path":"scale"}},{"sampler":36,"target":{"node":5,"path":"translation"}},{"sampler":37,"target":{"node":5,"path":"rotation"}},{"sampler":38,"target":{"node":5,"path":"scale"}},{"sampler":39,"target":{"node":4,"path":"translation"}},{"sampler":40,"target":{"node":4,"path":"rotation"}},{"sampler":41,"target":{"node":4,"path":"scale"}},{"sampler":42,"target":{"node":11,"path":"translation"}},{"sampler":43,"target":{"node":11,"path":"rotation"}},{"sampler":44,"target":{"node":11,"path":"scale"}},{"sampler":45,"target":{"node":10,"path":"translation"}},{"sampler":46,"target":{"node":10,"path":"rotation"}},{"sampler":47,"target":{"node":10,"path":"scale"}},{"sampler":48,"target":{"node":9,"path":"translation"}},{"sampler":49,"target":{"node":9,"path":"rotation"}},{"sampler":50,"target":{"node":9,"path":"scale"}},{"sampler":51,"target":{"node":8,"path":"translation"}},{"sampler":52,"target":{"node":8,"path":"rotation"}},{"sampler":53,"target":{"node":8,"path":"scale"}},{"sampler":54,"target":{"node":13,"path":"translation"}},{"sampler":55,"target":{"node":13,"path":"rotation"}},{"sampler":56,"target":{"node":13,"path":"scale"}},{"sampler":57,"target":{"node":12,"path":"translation"}},{"sampler":58,"target":{"node":12,"path":"rotation"}},{"sampler":59,"target":{"node":12,"path":"scale"}},{"sampler":60,"target":{"node":38,"path":"translation"}},{"sampler":61,"target":{"node":38,"path":"rotation"}},{"sampler":62,"target":{"node":38,"path":"scale"}},{"sampler":63,"target":{"node":35,"path":"translation"}},{"sampler":64,"target":{"node":35,"path":"rotation"}},{"sampler":65,"target":{"node":35,"path":"scale"}},{"sampler":66,"target":{"node":31,"path":"translation"}},{"sampler":67,"target":{"node":31,"path":"rotation"}},{"sampler":68,"target":{"node":31,"path":"scale"}},{"sampler":69,"target":{"node":30,"path":"translation"}},{"sampler":70,"target":{"node":30,"path":"rotation"}},{"sampler":71,"target":{"node":30,"path":"scale"}},{"sampler":72,"target":{"node":17,"path":"translation"}},{"sampler":73,"target":{"node":17,"path":"rotation"}},{"sampler":74,"target":{"node":17,"path":"scale"}},{"sampler":75,"target":{"node":16,"path":"translation"}},{"sampler":76,"target":{"node":16,"path":"rotation"}},{"sampler":77,"target":{"node":16,"path":"scale"}},{"sampler":78,"target":{"node":15,"path":"translation"}},{"sampler":79,"target":{"node":15,"path":"rotation"}},{"sampler":80,"target":{"node":15,"path":"scale"}},{"sampler":81,"target":{"node":20,"path":"translation"}},{"sampler":82,"target":{"node":20,"path":"rotation"}},{"sampler":83,"target":{"node":20,"path":"scale"}},{"sampler":84,"target":{"node":19,"path":"translation"}},{"sampler":85,"target":{"node":19,"path":"rotation"}},{"sampler":86,"target":{"node":19,"path":"scale"}},{"sampler":87,"target":{"node":18,"path":"translation"}},{"sampler":88,"target":{"node":18,"path":"rotation"}},{"sampler":89,"target":{"node":18,"path":"scale"}},{"sampler":90,"target":{"node":23,"path":"translation"}},{"sampler":91,"target":{"node":23,"path":"rotation"}},{"sampler":92,"target":{"node":23,"path":"scale"}},{"sampler":93,"target":{"node":22,"path":"translation"}},{"sampler":94,"target":{"node":22,"path":"rotation"}},{"sampler":95,"target":{"node":22,"path":"scale"}},{"sampler":96,"target":{"node":21,"path":"translation"}},{"sampler":97,"target":{"node":21,"path":"rotation"}},{"sampler":98,"target":{"node":21,"path":"scale"}},{"sampler":99,"target":{"node":26,"path":"translation"}},{"sampler":100,"target":{"node":26,"path":"rotation"}},{"sampler":101,"target":{"node":26,"path":"scale"}},{"sampler":102,"target":{"node":25,"path":"translation"}},{"sampler":103,"target":{"node":25,"path":"rotation"}},{"sampler":104,"target":{"node":25,"path":"scale"}},{"sampler":105,"target":{"node":24,"path":"translation"}},{"sampler":106,"target":{"node":24,"path":"rotation"}},{"sampler":107,"target":{"node":24,"path":"scale"}},{"sampler":108,"target":{"node":29,"path":"translation"}},{"sampler":109,"target":{"node":29,"path":"rotation"}},{"sampler":110,"target":{"node":29,"path":"scale"}},{"sampler":111,"target":{"node":28,"path":"translation"}},{"sampler":112,"target":{"node":28,"path":"rotation"}},{"sampler":113,"target":{"node":28,"path":"scale"}},{"sampler":114,"target":{"node":27,"path":"translation"}},{"sampler":115,"target":{"node":27,"path":"rotation"}},{"sampler":116,"target":{"node":27,"path":"scale"}},{"sampler":117,"target":{"node":32,"path":"translation"}},{"sampler":118,"target":{"node":32,"path":"rotation"}},{"sampler":119,"target":{"node":32,"path":"scale"}},{"sampler":120,"target":{"node":34,"path":"translation"}},{"sampler":121,"target":{"node":34,"path":"rotation"}},{"sampler":122,"target":{"node":34,"path":"scale"}},{"sampler":123,"target":{"node":33,"path":"translation"}},{"sampler":124,"target":{"node":33,"path":"rotation"}},{"sampler":125,"target":{"node":33,"path":"scale"}},{"sampler":126,"target":{"node":37,"path":"translation"}},{"sampler":127,"target":{"node":37,"path":"rotation"}},{"sampler":128,"target":{"node":37,"path":"scale"}},{"sampler":129,"target":{"node":36,"path":"translation"}},{"sampler":130,"target":{"node":36,"path":"rotation"}},{"sampler":131,"target":{"node":36,"path":"scale"}},{"sampler":132,"target":{"node":62,"path":"translation"}},{"sampler":133,"target":{"node":62,"path":"rotation"}},{"sampler":134,"target":{"node":62,"path":"scale"}},{"sampler":135,"target":{"node":59,"path":"translation"}},{"sampler":136,"target":{"node":59,"path":"rotation"}},{"sampler":137,"target":{"node":59,"path":"scale"}},{"sampler":138,"target":{"node":55,"path":"translation"}},{"sampler":139,"target":{"node":55,"path":"rotation"}},{"sampler":140,"target":{"node":55,"path":"scale"}},{"sampler":141,"target":{"node":54,"path":"translation"}},{"sampler":142,"target":{"node":54,"path":"rotation"}},{"sampler":143,"target":{"node":54,"path":"scale"}},{"sampler":144,"target":{"node":41,"path":"translation"}},{"sampler":145,"target":{"node":41,"path":"rotation"}},{"sampler":146,"target":{"node":41,"path":"scale"}},{"sampler":147,"target":{"node":40,"path":"translation"}},{"sampler":148,"target":{"node":40,"path":"rotation"}},{"sampler":149,"target":{"node":40,"path":"scale"}},{"sampler":150,"target":{"node":39,"path":"translation"}},{"sampler":151,"target":{"node":39,"path":"rotation"}},{"sampler":152,"target":{"node":39,"path":"scale"}},{"sampler":153,"target":{"node":44,"path":"translation"}},{"sampler":154,"target":{"node":44,"path":"rotation"}},{"sampler":155,"target":{"node":44,"path":"scale"}},{"sampler":156,"target":{"node":43,"path":"translation"}},{"sampler":157,"target":{"node":43,"path":"rotation"}},{"sampler":158,"target":{"node":43,"path":"scale"}},{"sampler":159,"target":{"node":42,"path":"translation"}},{"sampler":160,"target":{"node":42,"path":"rotation"}},{"sampler":161,"target":{"node":42,"path":"scale"}},{"sampler":162,"target":{"node":47,"path":"translation"}},{"sampler":163,"target":{"node":47,"path":"rotation"}},{"sampler":164,"target":{"node":47,"path":"scale"}},{"sampler":165,"target":{"node":46,"path":"translation"}},{"sampler":166,"target":{"node":46,"path":"rotation"}},{"sampler":167,"target":{"node":46,"path":"scale"}},{"sampler":168,"target":{"node":45,"path":"translation"}},{"sampler":169,"target":{"node":45,"path":"rotation"}},{"sampler":170,"target":{"node":45,"path":"scale"}},{"sampler":171,"target":{"node":50,"path":"translation"}},{"sampler":172,"target":{"node":50,"path":"rotation"}},{"sampler":173,"target":{"node":50,"path":"scale"}},{"sampler":174,"target":{"node":49,"path":"translation"}},{"sampler":175,"target":{"node":49,"path":"rotation"}},{"sampler":176,"target":{"node":49,"path":"scale"}},{"sampler":177,"target":{"node":48,"path":"translation"}},{"sampler":178,"target":{"node":48,"path":"rotation"}},{"sampler":179,"target":{"node":48,"path":"scale"}},{"sampler":180,"target":{"node":53,"path":"translation"}},{"sampler":181,"target":{"node":53,"path":"rotation"}},{"sampler":182,"target":{"node":53,"path":"scale"}},{"sampler":183,"target":{"node":52,"path":"translation"}},{"sampler":184,"target":{"node":52,"path":"rotation"}},{"sampler":185,"target":{"node":52,"path":"scale"}},{"sampler":186,"target":{"node":51,"path":"translation"}},{"sampler":187,"target":{"node":51,"path":"rotation"}},{"sampler":188,"target":{"node":51,"path":"scale"}},{"sampler":189,"target":{"node":56,"path":"translation"}},{"sampler":190,"target":{"node":56,"path":"rotation"}},{"sampler":191,"target":{"node":56,"path":"scale"}},{"sampler":192,"target":{"node":58,"path":"translation"}},{"sampler":193,"target":{"node":58,"path":"rotation"}},{"sampler":194,"target":{"node":58,"path":"scale"}},{"sampler":195,"target":{"node":57,"path":"translation"}},{"sampler":196,"target":{"node":57,"path":"rotation"}},{"sampler":197,"target":{"node":57,"path":"scale"}},{"sampler":198,"target":{"node":61,"path":"translation"}},{"sampler":199,"target":{"node":61,"path":"rotation"}},{"sampler":200,"target":{"node":61,"path":"scale"}},{"sampler":201,"target":{"node":60,"path":"translation"}},{"sampler":202,"target":{"node":60,"path":"rotation"}},{"sampler":203,"target":{"node":60,"path":"scale"}},{"sampler":204,"target":{"node":69,"path":"translation"}},{"sampler":205,"target":{"node":69,"path":"rotation"}},{"sampler":206,"target":{"node":69,"path":"scale"}},{"sampler":207,"target":{"node":68,"path":"translation"}},{"sampler":208,"target":{"node":68,"path":"rotation"}},{"sampler":209,"target":{"node":68,"path":"scale"}},{"sampler":210,"target":{"node":67,"path":"translation"}},{"sampler":211,"target":{"node":67,"path":"rotation"}},{"sampler":212,"target":{"node":67,"path":"scale"}},{"sampler":213,"target":{"node":66,"path":"translation"}},{"sampler":214,"target":{"node":66,"path":"rotation"}},{"sampler":215,"target":{"node":66,"path":"scale"}},{"sampler":216,"target":{"node":73,"path":"translation"}},{"sampler":217,"target":{"node":73,"path":"rotation"}},{"sampler":218,"target":{"node":73,"path":"scale"}},{"sampler":219,"target":{"node":72,"path":"translation"}},{"sampler":220,"target":{"node":72,"path":"rotation"}},{"sampler":221,"target":{"node":72,"path":"scale"}},{"sampler":222,"target":{"node":71,"path":"translation"}},{"sampler":223,"target":{"node":71,"path":"rotation"}},{"sampler":224,"target":{"node":71,"path":"scale"}},{"sampler":225,"target":{"node":70,"path":"translation"}},{"sampler":226,"target":{"node":70,"path":"rotation"}},{"sampler":227,"target":{"node":70,"path":"scale"}},{"sampler":228,"target":{"node":76,"path":"translation"}},{"sampler":229,"target":{"node":76,"path":"rotation"}},{"sampler":230,"target":{"node":76,"path":"scale"}}]}],"nodes":[{"name":"Bone007","translation":[5.85404,0.0,-4.9896],"rotation":[-0.00056,0.32778,0.0218,0.9445],"scale":[1.0,1,1.0]},{"name":"Bone006","translation":[3.01461,0.0,-6.1401],"rotation":[0.01224,-0.1211,0.00694,0.99254],"scale":[1.0,1,1.0],"children":[0]},{"name":"Bone005","translation":[-5.95326,1E-05,0.63689],"rotation":[-0.005,0.65579,-0.00473,0.75491],"scale":[1,1.0,1],"children":[1]},{"name":"Bone004","translation":[18.7672,-8.27509,0.0],"rotation":[0.60332,0.37821,0.37717,0.59221],"scale":[1.0,1.0,1],"children":[2]},{"name":"Bone011","translation":[3.84341,-1E-05,0.0],"rotation":[0.05117,0.17301,-0.02469,0.98328],"scale":[1,1,1.0]},{"name":"Bone010","translation":[5.48503,0.0,-1E-05],"rotation":[-0.07615,0.0778,0.07003,0.99159],"scale":[1.0,1,1],"children":[4]},{"name":"Bone009","translation":[5.91297,1E-05,0],"rotation":[-0.00537,0.18813,0.04886,0.98091],"scale":[1.0,1,1],"children":[5]},{"name":"Bone008","translation":[17.68284,5.67057,-2.82045],"rotation":[-0.04005,0.93126,0.23859,0.27246],"scale":[1.0,1.0,1],"children":[6]},{"name":"Bone015","translation":[-2.152,-1E-05,3.39405],"rotation":[-0.20991,0.61948,0.18833,0.73261],"scale":[1.0,1.0,1]},{"name":"Bone014","translation":[5.49094,-1E-05,-7E-05],"rotation":[0.57311,-0.07523,0.81206,0.08033],"scale":[1.00001,1.0,1.0],"children":[8]},{"name":"Bone013","translation":[2.09998,0.0,5.5291],"rotation":[-0.70512,0.04425,-0.70722,0.02607],"scale":[1.0,1,1.00003],"children":[9]},{"name":"Bone012","translation":[17.00448,5.25524,2.99946],"rotation":[-0.15785,-0.58469,0.29175,0.74033],"scale":[1,1.0,1],"children":[10]},{"name":"Bone017","translation":[4.49637,1E-05,-3.03999],"rotation":[0.00511,0.00982,0.17574,0.98437],"scale":[1.0,1.0,1.0]},{"name":"Bone016","translation":[17.15663,6.36972,-0.60378],"rotation":[0.05654,-0.73346,0.67733,0.00811],"scale":[1,1.0,1],"children":[12]},{"name":"Bip001 Head","translation":[6.02806,0.0,0.0],"rotation":[0.0,0.0,-0.0218,0.99976],"children":[3,7,11,13]},{"name":"Bip001 L Finger02","translation":[1.66278,0.0,1E-05],"rotation":[0.0,0.0,0.03429,0.99941],"scale":[1,1.0,1]},{"name":"Bip001 L Finger01","translation":[4.27738,-1E-05,0.0],"rotation":[0.0,0.0,0.20595,0.97856],"scale":[1,1,1.0],"children":[15]},{"name":"Bip001 L Finger0","translation":[0.95385,1.10569,-1.46035],"rotation":[0.56401,0.29058,0.03492,0.77216],"scale":[1.0,1,1.0],"children":[16]},{"name":"Bip001 L Finger12","translation":[1.6263,0.0,0.0],"rotation":[0.0,0.0,0.13772,0.99047],"scale":[1,1.0,1.0]},{"name":"Bip001 L Finger11","translation":[2.80086,0.0,-1E-05],"rotation":[0.0,0.0,0.13772,0.99047],"scale":[1.0,1,1],"children":[18]},{"name":"Bip001 L Finger1","translation":[6.9778,0.0329,-1.82511],"rotation":[-0.01428,-0.01468,0.15063,0.98838],"scale":[1,1.0,1],"children":[19]},{"name":"Bip001 L Finger22","translation":[1.77493,0.0,-1E-05],"rotation":[0.0,0.0,0.16714,0.98593],"scale":[1.0,1.0,1]},{"name":"Bip001 L Finger21","translation":[3.04285,0.0,2E-05],"rotation":[0.0,0.0,0.16714,0.98593],"scale":[1,1.0,1.0],"children":[21]},{"name":"Bip001 L Finger2","translation":[6.89672,-0.11386,-0.41021],"rotation":[-0.0438,0.00242,0.16447,0.98541],"scale":[1,1.0,1.0],"children":[22]},{"name":"Bip001 L Finger32","translation":[1.62452,0.0,-1E-05],"rotation":[0.0,0.0,0.25875,0.96595],"scale":[1,1.0,1]},{"name":"Bip001 L Finger31","translation":[2.8582,0.0,1E-05],"rotation":[0.0,0.0,0.25874,0.96595],"scale":[1,1.0,1],"children":[24]},{"name":"Bip001 L Finger3","translation":[6.7617,-0.05625,1.10208],"rotation":[-0.08224,0.03685,0.21012,0.97351],"scale":[1,1.0,1],"children":[25]},{"name":"Bip001 L Finger42","translation":[1.32886,0.0,0.0],"rotation":[0.0,0.0,0.23035,0.97311],"scale":[1.0,1.0,1]},{"name":"Bip001 L Finger41","translation":[2.48478,0.0,1E-05],"rotation":[0.0,0.0,0.23035,0.97311],"scale":[1.0,1,1],"children":[27]},{"name":"Bip001 L Finger4","translation":[5.99049,0.37477,2.34796],"rotation":[-0.115,0.01857,0.23859,0.96411],"scale":[1,1.0,1.0],"children":[28]},{"name":"Bip001 L Hand","translation":[21.79163,1E-05,0.0],"rotation":[-0.60114,-0.00804,-0.02404,0.79874],"scale":[1.0,1,1],"children":[17,20,23,26,29]},{"name":"Bip001 L Forearm","translation":[21.62451,0.0,-1E-05],"rotation":[0.0,0.0,-0.5897,0.80762],"scale":[1.0,1.0,1],"children":[30]},{"name":"Bone023","translation":[3.28121,-0.36382,-4.85358],"rotation":[0.96695,0.05529,-0.24586,0.03882],"scale":[1.0,1.0,1.0]},{"name":"Bip001 L ForeTwist1","translation":[10.89581,0.0,1E-05],"rotation":[0.04679,0.0,0.0,0.9989]},{"name":"Bip001 L ForeTwist","translation":[21.62451,0.0,-1E-05],"rotation":[0.03779,-0.02759,-0.58905,0.80674],"scale":[1.0,1,1.0],"children":[33]},{"name":"Bip001 L UpperArm","translation":[7.43502,0.0,4E-05],"rotation":[0.34948,0.46886,-0.09779,0.80528],"scale":[1.0,1.0,1],"children":[31,32,34]},{"name":"Bip001 LUpArmTwist1","translation":[10.81227,0.0,-2E-05],"rotation":[0.0,0.0,0.0,1],"scale":[1,1.0,1]},{"name":"Bip001 LUpArmTwist","translation":[7.43502,0.0,4E-05],"rotation":[0.34948,0.46886,-0.09779,0.80528],"scale":[1.0,1.0,1.0],"children":[36]},{"name":"Bip001 L Clavicle","translation":[-4.51269,0.9227,4.62661],"rotation":[0.59801,-0.17045,0.76205,0.18057],"scale":[1.0,1,1],"children":[35,37]},{"name":"Bip001 R Finger02","translation":[1.66278,2E-05,-1E-05],"rotation":[0.0,0.0,-0.01719,0.99985],"scale":[1.0,1,1.0]},{"name":"Bip001 R Finger01","translation":[4.27738,0.0,0.0],"rotation":[0.0,0.0,0.26349,0.96466],"scale":[1.0,1.0,1],"children":[39]},{"name":"Bip001 R Finger0","translation":[0.95384,1.10569,1.46035],"rotation":[-0.85508,-0.32968,-0.11532,0.38322],"scale":[1,1,1.0],"children":[40]},{"name":"Bip001 R Finger12","translation":[1.6263,0.0,0.0],"rotation":[0.0,0.0,0.22496,0.97437],"scale":[1.0,1,1.0]},{"name":"Bip001 R Finger11","translation":[2.80087,0.0,0.0],"rotation":[0.0,0.0,0.26664,0.96379],"scale":[1.0,1.0,1.0],"children":[42]},{"name":"Bip001 R Finger1","translation":[6.97779,0.03289,1.82511],"rotation":[-0.01402,0.01301,0.20129,0.97934],"scale":[1,1.0,1],"children":[43]},{"name":"Bip001 R Finger22","translation":[1.77493,0.0,1E-05],"rotation":[0.0,0.0,0.14278,0.98975],"scale":[1.0,1.0,1.0]},{"name":"Bip001 R Finger21","translation":[3.04285,-1E-05,2E-05],"rotation":[0.0,0.0,0.37647,0.92643],"scale":[1,1.0,1.0],"children":[45]},{"name":"Bip001 R Finger2","translation":[6.89671,-0.11386,0.41019],"rotation":[0.00522,-0.00197,0.26278,0.96484],"scale":[1.0,1,1.0],"children":[46]},{"name":"Bip001 R Finger32","translation":[1.62453,0.0,0.0],"rotation":[0.0,0.0,0.36,0.93295],"scale":[1.0,1.0,1]},{"name":"Bip001 R Finger31","translation":[2.8582,0.0,1E-05],"rotation":[0.00042,0.00566,0.47822,0.87822],"scale":[1.0,1.0,1.0],"children":[48]},{"name":"Bip001 R Finger3","translation":[6.76169,-0.05626,-1.10209],"rotation":[0.06274,-0.01126,0.31673,0.94637],"scale":[1.0,1.0,1.0],"children":[49]},{"name":"Bip001 R Finger42","translation":[1.32885,0.0,0.0],"rotation":[0.0,0.0,0.32726,0.94493],"scale":[1.0,1,1.0]},{"name":"Bip001 R Finger41","translation":[2.48477,0.0,-3E-05],"rotation":[0.0005,-0.00613,0.35202,0.93597],"scale":[1.0,1.0,1.0],"children":[51]},{"name":"Bip001 R Finger4","translation":[5.99048,0.37476,-2.34794],"rotation":[0.10269,-0.00369,0.39915,0.91111],"scale":[1.0,1,1.0],"children":[52]},{"name":"Bip001 R Hand","translation":[21.79164,2E-05,-2E-05],"rotation":[0.82989,0.02965,-0.03433,0.55608],"scale":[1.0,1.0,1],"children":[41,44,47,50,53]},{"name":"Bip001 R Forearm","translation":[21.62446,-1E-05,1E-05],"rotation":[0.0,0.0,-0.80305,0.59591],"scale":[1.0,1,1.0],"children":[54]},{"name":"Bone022","translation":[3.30676,-0.3623,4.82865],"rotation":[-0.96695,-0.05529,-0.24586,0.03882],"scale":[0.99997,1.0,1.0]},{"name":"Bip001 R ForeTwist1","translation":[10.89582,1E-05,-1E-05],"rotation":[0.0648,0.0,0.0,0.9979],"scale":[1.0,1,1]},{"name":"Bip001 R ForeTwist","translation":[21.62446,-1E-05,1E-05],"rotation":[0.03861,-0.05204,-0.80136,0.59466],"scale":[1.0,1.0,1.0],"children":[57]},{"name":"Bip001 R UpperArm","translation":[7.43502,0.0,-1E-05],"rotation":[-0.32934,-0.42308,-0.06935,0.84126],"scale":[1,1.0,1.0],"children":[55,56,58]},{"name":"Bip001 RUpArmTwist1","translation":[10.81224,0.0,1E-05],"rotation":[0.0,0.0,0.0,1],"scale":[1,1.0,1.0]},{"name":"Bip001 RUpArmTwist","translation":[7.43502,0.0,-1E-05],"rotation":[-0.32934,-0.42308,-0.06935,0.84126],"scale":[1.0,1.0,1.0],"children":[60]},{"name":"Bip001 R Clavicle","translation":[-4.5127,0.92273,-4.62661],"rotation":[-0.59801,0.17044,0.76205,0.18057],"scale":[1.0,1,1.0],"children":[59,61]},{"name":"Bip001 Neck","translation":[16.04908,-0.41813,0.0],"rotation":[0.0,0.0,0.24707,0.969],"scale":[1.0,1,1.0],"children":[14,38,62]},{"name":"Bip001 Spine2","translation":[8.76798,-0.01048,0.0],"rotation":[0.0,0.0,-0.12308,0.9924],"scale":[1.0,1.0,1.0],"children":[63]},{"name":"Bip001 Spine1","translation":[11.02032,-0.00691,0.0],"rotation":[0.0,0.0,-0.07452,0.99722],"scale":[1.0,1,1],"children":[64]},{"name":"Bip001 L Toe0","translation":[12.44428,7.60515,0.0],"rotation":[0.0,0.0,0.70711,0.70711],"scale":[1.0,1.0,1]},{"name":"Bip001 L Foot","translation":[41.11433,0.0,0.0],"rotation":[-0.07575,-0.00317,0.03895,0.99636],"scale":[1.0,1.0,1.0],"children":[66]},{"name":"Bip001 L Calf","translation":[38.51873,-1E-05,0.0],"rotation":[0.0,0.0,-0.06485,0.99789],"scale":[1,1.0,1],"children":[67]},{"name":"Bip001 L Thigh","translation":[-9.31385,-1.44313,7.23999],"rotation":[0.07105,0.99741,0.01032,0.00363],"scale":[1.0,1.0,1],"children":[68]},{"name":"Bip001 R Toe0","translation":[12.44429,7.60515,0.0],"rotation":[0.0,0.0,0.70711,0.70711],"scale":[1.0,1.0,1]},{"name":"Bip001 R Foot","translation":[41.11433,-1E-05,0.0],"rotation":[0.0757,0.0022,0.03884,0.99637],"scale":[1,1,1.0],"children":[70]},{"name":"Bip001 R Calf","translation":[38.51876,-2E-05,1E-05],"rotation":[0.0,0.0,-0.06442,0.99792],"scale":[1,1.0,1],"children":[71]},{"name":"Bip001 R Thigh","translation":[-9.31384,-1.44308,-7.23998],"rotation":[-0.07081,-0.99743,0.01039,0.00459],"scale":[1.0,1.0,1],"children":[72]},{"name":"Bip001 Spine","translation":[9.32801,1.34859,0.0],"rotation":[0.0,0.0,-0.00507,0.99999],"scale":[1.0,1.0,1],"children":[65,69,73]},{"name":"Bip001 Pelvis","translation":[0.0,-2E-05,0.0],"rotation":[-0.74868,-0.66294,0.0,0.0],"scale":[1.0,1.0,1],"children":[74]},{"name":"Bip001","translation":[-0.00078,0.92359,-0.00549],"rotation":[-0.00945,-0.70796,0.01159,0.7061],"scale":[0.01,0.01,0.01],"children":[75]}],"scenes":[{"name":"Scene","nodes":[76]}],"scene":0}