{"buffers":[{"uri":"1014_01.bin","byteLength":132516},{"byteLength":567228,"extensions":{"EXT_meshopt_compression":{"fallback":true}}}],"asset":{"version":"2.0","generator":"gltfpack 0.20"},"extensionsUsed":["KHR_mesh_quantization","EXT_meshopt_compression","KHR_texture_transform","KHR_materials_ior","KHR_materials_specular"],"extensionsRequired":["KHR_mesh_quantization","EXT_meshopt_compression"],"bufferViews":[{"buffer":1,"byteOffset":0,"byteLength":8784,"byteStride":4,"target":34962,"extensions":{"EXT_meshopt_compression":{"buffer":0,"byteOffset":0,"byteLength":185,"byteStride":4,"mode":"ATTRIBUTES","count":2196}}},{"buffer":1,"byteOffset":8784,"byteLength":100360,"byteStride":8,"target":34962,"extensions":{"EXT_meshopt_compression":{"buffer":0,"byteOffset":188,"byteLength":33866,"byteStride":8,"mode":"ATTRIBUTES","count":12545}}},{"buffer":1,"byteOffset":109144,"byteLength":25340,"byteStride":4,"target":34962,"extensions":{"EXT_meshopt_compression":{"buffer":0,"byteOffset":34056,"byteLength":12987,"byteStride":4,"mode":"ATTRIBUTES","filter":"OCTAHEDRAL","count":6335}}},{"buffer":1,"byteOffset":134484,"byteLength":25340,"byteStride":4,"target":34962,"extensions":{"EXT_meshopt_compression":{"buffer":0,"byteOffset":47044,"byteLength":16046,"byteStride":4,"mode":"ATTRIBUTES","count":6335}}},{"buffer":1,"byteOffset":159824,"byteLength":25340,"byteStride":4,"target":34962,"extensions":{"EXT_meshopt_compression":{"buffer":0,"byteOffset":63092,"byteLength":2898,"byteStride":4,"mode":"ATTRIBUTES","count":6335}}},{"buffer":1,"byteOffset":185164,"byteLength":25340,"byteStride":4,"target":34962,"extensions":{"EXT_meshopt_compression":{"buffer":0,"byteOffset":65992,"byteLength":4751,"byteStride":4,"mode":"ATTRIBUTES","count":6335}}},{"buffer":1,"byteOffset":210504,"byteLength":47028,"target":34963,"extensions":{"EXT_meshopt_compression":{"buffer":0,"byteOffset":70744,"byteLength":8701,"byteStride":2,"mode":"TRIANGLES","count":23514}}},{"buffer":1,"byteOffset":257532,"byteLength":165348,"byteStride":4,"target":34962,"extensions":{"EXT_meshopt_compression":{"buffer":0,"byteOffset":79448,"byteLength":30470,"byteStride":4,"mode":"ATTRIBUTES","count":41337}}},{"buffer":1,"byteOffset":422880,"byteLength":140508,"byteStride":4,"target":34962,"extensions":{"EXT_meshopt_compression":{"buffer":0,"byteOffset":109920,"byteLength":19966,"byteStride":4,"mode":"ATTRIBUTES","count":35127}}},{"buffer":1,"byteOffset":563388,"byteLength":3840,"extensions":{"EXT_meshopt_compression":{"buffer":0,"byteOffset":129888,"byteLength":2626,"byteStride":64,"mode":"ATTRIBUTES","count":60}}}],"accessors":[{"bufferView":0,"byteOffset":0,"componentType":5121,"count":2196,"type":"VEC4","normalized":true},{"bufferView":1,"byteOffset":0,"componentType":5123,"count":2196,"type":"VEC3","min":[5406,12780,559],"max":[8011,15620,3259]},{"bufferView":2,"byteOffset":0,"componentType":5120,"count":2196,"type":"VEC3","normalized":true},{"bufferView":3,"byteOffset":0,"componentType":5123,"count":2196,"type":"VEC2","normalized":true},{"bufferView":4,"byteOffset":0,"componentType":5121,"count":2196,"type":"VEC4"},{"bufferView":5,"byteOffset":0,"componentType":5121,"count":2196,"type":"VEC4","normalized":true},{"bufferView":6,"byteOffset":0,"componentType":5123,"count":6456,"type":"SCALAR"},{"bufferView":1,"byteOffset":17568,"componentType":5123,"count":685,"type":"VEC3","min":[5621,12866,1590],"max":[7775,15381,3191]},{"bufferView":2,"byteOffset":8784,"componentType":5120,"count":685,"type":"VEC3","normalized":true},{"bufferView":3,"byteOffset":8784,"componentType":5123,"count":685,"type":"VEC2","normalized":true},{"bufferView":4,"byteOffset":8784,"componentType":5121,"count":685,"type":"VEC4"},{"bufferView":5,"byteOffset":8784,"componentType":5121,"count":685,"type":"VEC4","normalized":true},{"bufferView":1,"byteOffset":23048,"componentType":5122,"count":685,"type":"VEC3","min":[-11,-163,-72],"max":[13,20,11]},{"bufferView":7,"byteOffset":0,"componentType":5120,"count":685,"type":"VEC3","normalized":true},{"bufferView":8,"byteOffset":0,"componentType":5120,"count":685,"type":"VEC3","min":[-15,-108,-11],"max":[9,31,16]},{"bufferView":7,"byteOffset":2740,"componentType":5120,"count":685,"type":"VEC3","normalized":true},{"bufferView":8,"byteOffset":2740,"componentType":5120,"count":685,"type":"VEC3","min":[-9,-98,-12],"max":[13,16,12]},{"bufferView":7,"byteOffset":5480,"componentType":5120,"count":685,"type":"VEC3","normalized":true},{"bufferView":8,"byteOffset":5480,"componentType":5120,"count":685,"type":"VEC3","min":[-29,-13,-6],"max":[29,75,3]},{"bufferView":7,"byteOffset":8220,"componentType":5120,"count":685,"type":"VEC3","normalized":true},{"bufferView":1,"byteOffset":28528,"componentType":5122,"count":685,"type":"VEC3","min":[-37,-306,-171],"max":[35,34,21]},{"bufferView":7,"byteOffset":10960,"componentType":5120,"count":685,"type":"VEC3","normalized":true},{"bufferView":8,"byteOffset":8220,"componentType":5120,"count":685,"type":"VEC3","min":[-11,-114,-9],"max":[41,35,21]},{"bufferView":7,"byteOffset":13700,"componentType":5120,"count":685,"type":"VEC3","normalized":true},{"bufferView":8,"byteOffset":10960,"componentType":5120,"count":685,"type":"VEC3","min":[-51,-119,-9],"max":[7,26,21]},{"bufferView":7,"byteOffset":16440,"componentType":5120,"count":685,"type":"VEC3","normalized":true},{"bufferView":1,"byteOffset":34008,"componentType":5122,"count":685,"type":"VEC3","min":[-36,-213,-122],"max":[34,22,16]},{"bufferView":7,"byteOffset":19180,"componentType":5120,"count":685,"type":"VEC3","normalized":true},{"bufferView":8,"byteOffset":13700,"componentType":5120,"count":685,"type":"VEC3","min":[-34,-91,-57],"max":[33,64,14]},{"bufferView":7,"byteOffset":21920,"componentType":5120,"count":685,"type":"VEC3","normalized":true},{"bufferView":8,"byteOffset":16440,"componentType":5120,"count":685,"type":"VEC3","min":[-44,-48,-32],"max":[44,54,4]},{"bufferView":7,"byteOffset":24660,"componentType":5120,"count":685,"type":"VEC3","normalized":true},{"bufferView":1,"byteOffset":39488,"componentType":5122,"count":685,"type":"VEC3","min":[-70,-132,-65],"max":[72,12,18]},{"bufferView":7,"byteOffset":27400,"componentType":5120,"count":685,"type":"VEC3","normalized":true},{"bufferView":8,"byteOffset":19180,"componentType":5120,"count":685,"type":"VEC3","min":[-90,-102,-55],"max":[90,0,13]},{"bufferView":7,"byteOffset":30140,"componentType":5120,"count":685,"type":"VEC3","normalized":true},{"bufferView":8,"byteOffset":21920,"componentType":5120,"count":685,"type":"VEC3","min":[-7,-65,-26],"max":[8,4,6]},{"bufferView":7,"byteOffset":32880,"componentType":5120,"count":685,"type":"VEC3","normalized":true},{"bufferView":8,"byteOffset":24660,"componentType":5120,"count":685,"type":"VEC3","min":[-36,-18,-28],"max":[36,28,1]},{"bufferView":7,"byteOffset":35620,"componentType":5120,"count":685,"type":"VEC3","normalized":true},{"bufferView":8,"byteOffset":27400,"componentType":5120,"count":685,"type":"VEC3","min":[-7,-64,-27],"max":[5,2,1]},{"bufferView":7,"byteOffset":38360,"componentType":5120,"count":685,"type":"VEC3","normalized":true},{"bufferView":8,"byteOffset":30140,"componentType":5120,"count":685,"type":"VEC3","min":[-26,-69,-26],"max":[27,24,29]},{"bufferView":7,"byteOffset":41100,"componentType":5120,"count":685,"type":"VEC3","normalized":true},{"bufferView":8,"byteOffset":32880,"componentType":5120,"count":685,"type":"VEC3","min":[-20,-17,-3],"max":[19,13,4]},{"bufferView":7,"byteOffset":43840,"componentType":5120,"count":685,"type":"VEC3","normalized":true},{"bufferView":1,"byteOffset":44968,"componentType":5122,"count":685,"type":"VEC3","min":[-134,-130,-122],"max":[132,77,6]},{"bufferView":7,"byteOffset":46580,"componentType":5120,"count":685,"type":"VEC3","normalized":true},{"bufferView":1,"byteOffset":50448,"componentType":5122,"count":685,"type":"VEC3","min":[-126,-12,-12],"max":[132,110,28]},{"bufferView":7,"byteOffset":49320,"componentType":5120,"count":685,"type":"VEC3","normalized":true},{"bufferView":8,"byteOffset":35620,"componentType":5120,"count":685,"type":"VEC3","min":[-5,-22,-22],"max":[4,46,2]},{"bufferView":7,"byteOffset":52060,"componentType":5120,"count":685,"type":"VEC3","normalized":true},{"bufferView":8,"byteOffset":38360,"componentType":5120,"count":685,"type":"VEC3","min":[-116,-10,-17],"max":[126,113,27]},{"bufferView":7,"byteOffset":54800,"componentType":5120,"count":685,"type":"VEC3","normalized":true},{"bufferView":8,"byteOffset":41100,"componentType":5120,"count":685,"type":"VEC3","min":[-11,0,-2],"max":[10,36,2]},{"bufferView":7,"byteOffset":57540,"componentType":5120,"count":685,"type":"VEC3","normalized":true},{"bufferView":8,"byteOffset":43840,"componentType":5120,"count":685,"type":"VEC3","min":[-4,-20,0],"max":[2,0,1]},{"bufferView":7,"byteOffset":60280,"componentType":5120,"count":685,"type":"VEC3","normalized":true},{"bufferView":8,"byteOffset":46580,"componentType":5120,"count":685,"type":"VEC3","min":[-19,-1,-1],"max":[2,6,1]},{"bufferView":7,"byteOffset":63020,"componentType":5120,"count":685,"type":"VEC3","normalized":true},{"bufferView":8,"byteOffset":49320,"componentType":5120,"count":685,"type":"VEC3","min":[-1,-7,-1],"max":[16,10,1]},{"bufferView":7,"byteOffset":65760,"componentType":5120,"count":685,"type":"VEC3","normalized":true},{"bufferView":8,"byteOffset":52060,"componentType":5120,"count":685,"type":"VEC3","min":[-92,-113,-2],"max":[71,5,15]},{"bufferView":7,"byteOffset":68500,"componentType":5120,"count":685,"type":"VEC3","normalized":true},{"bufferView":8,"byteOffset":54800,"componentType":5120,"count":685,"type":"VEC3","min":[-57,-33,-1],"max":[57,31,102]},{"bufferView":7,"byteOffset":71240,"componentType":5120,"count":685,"type":"VEC3","normalized":true},{"bufferView":6,"byteOffset":12912,"componentType":5123,"count":3588,"type":"SCALAR"},{"bufferView":1,"byteOffset":55928,"componentType":5123,"count":106,"type":"VEC3","min":[6114,13862,2754],"max":[7283,14263,2870]},{"bufferView":2,"byteOffset":11524,"componentType":5120,"count":106,"type":"VEC3","normalized":true},{"bufferView":3,"byteOffset":11524,"componentType":5123,"count":106,"type":"VEC2","normalized":true},{"bufferView":4,"byteOffset":11524,"componentType":5121,"count":106,"type":"VEC4"},{"bufferView":5,"byteOffset":11524,"componentType":5121,"count":106,"type":"VEC4","normalized":true},{"bufferView":8,"byteOffset":57540,"componentType":5120,"count":106,"type":"VEC3","min":[0,0,0],"max":[0,0,0]},{"bufferView":7,"byteOffset":73980,"componentType":5120,"count":106,"type":"VEC3","normalized":true},{"bufferView":8,"byteOffset":57964,"componentType":5120,"count":106,"type":"VEC3","min":[0,0,0],"max":[0,0,0]},{"bufferView":7,"byteOffset":74404,"componentType":5120,"count":106,"type":"VEC3","normalized":true},{"bufferView":8,"byteOffset":58388,"componentType":5120,"count":106,"type":"VEC3","min":[0,0,0],"max":[0,0,0]},{"bufferView":7,"byteOffset":74828,"componentType":5120,"count":106,"type":"VEC3","normalized":true},{"bufferView":8,"byteOffset":58812,"componentType":5120,"count":106,"type":"VEC3","min":[0,0,0],"max":[0,0,0]},{"bufferView":7,"byteOffset":75252,"componentType":5120,"count":106,"type":"VEC3","normalized":true},{"bufferView":8,"byteOffset":59236,"componentType":5120,"count":106,"type":"VEC3","min":[-3,0,-6],"max":[2,1,0]},{"bufferView":7,"byteOffset":75676,"componentType":5120,"count":106,"type":"VEC3","normalized":true},{"bufferView":8,"byteOffset":59660,"componentType":5120,"count":106,"type":"VEC3","min":[-1,-41,-1],"max":[47,8,2]},{"bufferView":7,"byteOffset":76100,"componentType":5120,"count":106,"type":"VEC3","normalized":true},{"bufferView":8,"byteOffset":60084,"componentType":5120,"count":106,"type":"VEC3","min":[-45,-54,-2],"max":[1,1,3]},{"bufferView":7,"byteOffset":76524,"componentType":5120,"count":106,"type":"VEC3","normalized":true},{"bufferView":8,"byteOffset":60508,"componentType":5120,"count":106,"type":"VEC3","min":[-3,0,-5],"max":[3,1,0]},{"bufferView":7,"byteOffset":76948,"componentType":5120,"count":106,"type":"VEC3","normalized":true},{"bufferView":8,"byteOffset":60932,"componentType":5120,"count":106,"type":"VEC3","min":[-1,0,-2],"max":[1,0,0]},{"bufferView":7,"byteOffset":77372,"componentType":5120,"count":106,"type":"VEC3","normalized":true},{"bufferView":8,"byteOffset":61356,"componentType":5120,"count":106,"type":"VEC3","min":[0,0,-1],"max":[0,0,0]},{"bufferView":7,"byteOffset":77796,"componentType":5120,"count":106,"type":"VEC3","normalized":true},{"bufferView":8,"byteOffset":61780,"componentType":5120,"count":106,"type":"VEC3","min":[0,0,0],"max":[0,0,0]},{"bufferView":7,"byteOffset":78220,"componentType":5120,"count":106,"type":"VEC3","normalized":true},{"bufferView":8,"byteOffset":62204,"componentType":5120,"count":106,"type":"VEC3","min":[0,0,0],"max":[0,0,0]},{"bufferView":7,"byteOffset":78644,"componentType":5120,"count":106,"type":"VEC3","normalized":true},{"bufferView":8,"byteOffset":62628,"componentType":5120,"count":106,"type":"VEC3","min":[0,0,0],"max":[0,0,0]},{"bufferView":7,"byteOffset":79068,"componentType":5120,"count":106,"type":"VEC3","normalized":true},{"bufferView":8,"byteOffset":63052,"componentType":5120,"count":106,"type":"VEC3","min":[0,0,0],"max":[0,0,0]},{"bufferView":7,"byteOffset":79492,"componentType":5120,"count":106,"type":"VEC3","normalized":true},{"bufferView":8,"byteOffset":63476,"componentType":5120,"count":106,"type":"VEC3","min":[0,0,0],"max":[0,0,0]},{"bufferView":7,"byteOffset":79916,"componentType":5120,"count":106,"type":"VEC3","normalized":true},{"bufferView":8,"byteOffset":63900,"componentType":5120,"count":106,"type":"VEC3","min":[0,0,0],"max":[0,0,0]},{"bufferView":7,"byteOffset":80340,"componentType":5120,"count":106,"type":"VEC3","normalized":true},{"bufferView":8,"byteOffset":64324,"componentType":5120,"count":106,"type":"VEC3","min":[0,0,0],"max":[0,0,0]},{"bufferView":7,"byteOffset":80764,"componentType":5120,"count":106,"type":"VEC3","normalized":true},{"bufferView":8,"byteOffset":64748,"componentType":5120,"count":106,"type":"VEC3","min":[-1,0,-2],"max":[1,0,0]},{"bufferView":7,"byteOffset":81188,"componentType":5120,"count":106,"type":"VEC3","normalized":true},{"bufferView":8,"byteOffset":65172,"componentType":5120,"count":106,"type":"VEC3","min":[0,0,0],"max":[0,0,0]},{"bufferView":7,"byteOffset":81612,"componentType":5120,"count":106,"type":"VEC3","normalized":true},{"bufferView":8,"byteOffset":65596,"componentType":5120,"count":106,"type":"VEC3","min":[0,0,0],"max":[0,0,0]},{"bufferView":7,"byteOffset":82036,"componentType":5120,"count":106,"type":"VEC3","normalized":true},{"bufferView":8,"byteOffset":66020,"componentType":5120,"count":106,"type":"VEC3","min":[0,0,0],"max":[0,0,0]},{"bufferView":7,"byteOffset":82460,"componentType":5120,"count":106,"type":"VEC3","normalized":true},{"bufferView":8,"byteOffset":66444,"componentType":5120,"count":106,"type":"VEC3","min":[0,11,-18],"max":[0,22,17]},{"bufferView":7,"byteOffset":82884,"componentType":5120,"count":106,"type":"VEC3","normalized":true},{"bufferView":8,"byteOffset":66868,"componentType":5120,"count":106,"type":"VEC3","min":[0,-26,-21],"max":[0,-13,21]},{"bufferView":7,"byteOffset":83308,"componentType":5120,"count":106,"type":"VEC3","normalized":true},{"bufferView":8,"byteOffset":67292,"componentType":5120,"count":106,"type":"VEC3","min":[-49,0,-42],"max":[-22,0,37]},{"bufferView":7,"byteOffset":83732,"componentType":5120,"count":106,"type":"VEC3","normalized":true},{"bufferView":8,"byteOffset":67716,"componentType":5120,"count":106,"type":"VEC3","min":[23,0,-44],"max":[52,0,38]},{"bufferView":7,"byteOffset":84156,"componentType":5120,"count":106,"type":"VEC3","normalized":true},{"bufferView":8,"byteOffset":68140,"componentType":5120,"count":106,"type":"VEC3","min":[-66,-54,-3],"max":[70,4,4]},{"bufferView":7,"byteOffset":84580,"componentType":5120,"count":106,"type":"VEC3","normalized":true},{"bufferView":8,"byteOffset":68564,"componentType":5120,"count":106,"type":"VEC3","min":[0,0,0],"max":[0,0,0]},{"bufferView":7,"byteOffset":85004,"componentType":5120,"count":106,"type":"VEC3","normalized":true},{"bufferView":6,"byteOffset":20088,"componentType":5123,"count":528,"type":"SCALAR"},{"bufferView":1,"byteOffset":56776,"componentType":5123,"count":120,"type":"VEC3","min":[6063,13947,2805],"max":[7328,14165,2986]},{"bufferView":2,"byteOffset":11948,"componentType":5120,"count":120,"type":"VEC3","normalized":true},{"bufferView":3,"byteOffset":11948,"componentType":5123,"count":120,"type":"VEC2","normalized":true},{"bufferView":4,"byteOffset":11948,"componentType":5121,"count":120,"type":"VEC4"},{"bufferView":5,"byteOffset":11948,"componentType":5121,"count":120,"type":"VEC4","normalized":true},{"bufferView":8,"byteOffset":68988,"componentType":5120,"count":120,"type":"VEC3","min":[0,0,0],"max":[0,0,0]},{"bufferView":7,"byteOffset":85428,"componentType":5120,"count":120,"type":"VEC3","normalized":true},{"bufferView":1,"byteOffset":57736,"componentType":5122,"count":120,"type":"VEC3","min":[-9,-133,-10],"max":[11,44,12]},{"bufferView":7,"byteOffset":85908,"componentType":5120,"count":120,"type":"VEC3","normalized":true},{"bufferView":1,"byteOffset":58696,"componentType":5122,"count":120,"type":"VEC3","min":[-4,-135,-18],"max":[14,36,11]},{"bufferView":7,"byteOffset":86388,"componentType":5120,"count":120,"type":"VEC3","normalized":true},{"bufferView":8,"byteOffset":69468,"componentType":5120,"count":120,"type":"VEC3","min":[0,0,0],"max":[0,0,0]},{"bufferView":7,"byteOffset":86868,"componentType":5120,"count":120,"type":"VEC3","normalized":true},{"bufferView":8,"byteOffset":69948,"componentType":5120,"count":120,"type":"VEC3","min":[0,0,0],"max":[0,0,0]},{"bufferView":7,"byteOffset":87348,"componentType":5120,"count":120,"type":"VEC3","normalized":true},{"bufferView":8,"byteOffset":70428,"componentType":5120,"count":120,"type":"VEC3","min":[-3,-115,-9],"max":[4,33,9]},{"bufferView":7,"byteOffset":87828,"componentType":5120,"count":120,"type":"VEC3","normalized":true},{"bufferView":8,"byteOffset":70908,"componentType":5120,"count":120,"type":"VEC3","min":[-13,-121,-13],"max":[7,27,8]},{"bufferView":7,"byteOffset":88308,"componentType":5120,"count":120,"type":"VEC3","normalized":true},{"bufferView":8,"byteOffset":71388,"componentType":5120,"count":120,"type":"VEC3","min":[0,0,0],"max":[0,0,0]},{"bufferView":7,"byteOffset":88788,"componentType":5120,"count":120,"type":"VEC3","normalized":true},{"bufferView":8,"byteOffset":71868,"componentType":5120,"count":120,"type":"VEC3","min":[0,0,0],"max":[0,0,0]},{"bufferView":7,"byteOffset":89268,"componentType":5120,"count":120,"type":"VEC3","normalized":true},{"bufferView":8,"byteOffset":72348,"componentType":5120,"count":120,"type":"VEC3","min":[0,0,0],"max":[0,0,0]},{"bufferView":7,"byteOffset":89748,"componentType":5120,"count":120,"type":"VEC3","normalized":true},{"bufferView":8,"byteOffset":72828,"componentType":5120,"count":120,"type":"VEC3","min":[0,0,0],"max":[0,0,0]},{"bufferView":7,"byteOffset":90228,"componentType":5120,"count":120,"type":"VEC3","normalized":true},{"bufferView":8,"byteOffset":73308,"componentType":5120,"count":120,"type":"VEC3","min":[0,0,0],"max":[0,0,0]},{"bufferView":7,"byteOffset":90708,"componentType":5120,"count":120,"type":"VEC3","normalized":true},{"bufferView":8,"byteOffset":73788,"componentType":5120,"count":120,"type":"VEC3","min":[0,0,0],"max":[0,0,0]},{"bufferView":7,"byteOffset":91188,"componentType":5120,"count":120,"type":"VEC3","normalized":true},{"bufferView":8,"byteOffset":74268,"componentType":5120,"count":120,"type":"VEC3","min":[0,0,0],"max":[0,0,0]},{"bufferView":7,"byteOffset":91668,"componentType":5120,"count":120,"type":"VEC3","normalized":true},{"bufferView":8,"byteOffset":74748,"componentType":5120,"count":120,"type":"VEC3","min":[0,0,0],"max":[0,0,0]},{"bufferView":7,"byteOffset":92148,"componentType":5120,"count":120,"type":"VEC3","normalized":true},{"bufferView":8,"byteOffset":75228,"componentType":5120,"count":120,"type":"VEC3","min":[0,0,0],"max":[0,0,0]},{"bufferView":7,"byteOffset":92628,"componentType":5120,"count":120,"type":"VEC3","normalized":true},{"bufferView":8,"byteOffset":75708,"componentType":5120,"count":120,"type":"VEC3","min":[0,0,0],"max":[0,0,0]},{"bufferView":7,"byteOffset":93108,"componentType":5120,"count":120,"type":"VEC3","normalized":true},{"bufferView":8,"byteOffset":76188,"componentType":5120,"count":120,"type":"VEC3","min":[0,0,0],"max":[0,0,0]},{"bufferView":7,"byteOffset":93588,"componentType":5120,"count":120,"type":"VEC3","normalized":true},{"bufferView":8,"byteOffset":76668,"componentType":5120,"count":120,"type":"VEC3","min":[0,0,0],"max":[0,0,0]},{"bufferView":7,"byteOffset":94068,"componentType":5120,"count":120,"type":"VEC3","normalized":true},{"bufferView":8,"byteOffset":77148,"componentType":5120,"count":120,"type":"VEC3","min":[-2,-22,-15],"max":[2,48,1]},{"bufferView":7,"byteOffset":94548,"componentType":5120,"count":120,"type":"VEC3","normalized":true},{"bufferView":8,"byteOffset":77628,"componentType":5120,"count":120,"type":"VEC3","min":[0,0,0],"max":[0,0,0]},{"bufferView":7,"byteOffset":95028,"componentType":5120,"count":120,"type":"VEC3","normalized":true},{"bufferView":8,"byteOffset":78108,"componentType":5120,"count":120,"type":"VEC3","min":[-11,0,-1],"max":[12,35,1]},{"bufferView":7,"byteOffset":95508,"componentType":5120,"count":120,"type":"VEC3","normalized":true},{"bufferView":8,"byteOffset":78588,"componentType":5120,"count":120,"type":"VEC3","min":[-1,-20,0],"max":[1,1,0]},{"bufferView":7,"byteOffset":95988,"componentType":5120,"count":120,"type":"VEC3","normalized":true},{"bufferView":8,"byteOffset":79068,"componentType":5120,"count":120,"type":"VEC3","min":[-19,0,0],"max":[0,6,1]},{"bufferView":7,"byteOffset":96468,"componentType":5120,"count":120,"type":"VEC3","normalized":true},{"bufferView":8,"byteOffset":79548,"componentType":5120,"count":120,"type":"VEC3","min":[0,-6,0],"max":[16,10,1]},{"bufferView":7,"byteOffset":96948,"componentType":5120,"count":120,"type":"VEC3","normalized":true},{"bufferView":8,"byteOffset":80028,"componentType":5120,"count":120,"type":"VEC3","min":[-15,-44,-4],"max":[11,4,4]},{"bufferView":7,"byteOffset":97428,"componentType":5120,"count":120,"type":"VEC3","normalized":true},{"bufferView":8,"byteOffset":80508,"componentType":5120,"count":120,"type":"VEC3","min":[0,0,0],"max":[0,0,0]},{"bufferView":7,"byteOffset":97908,"componentType":5120,"count":120,"type":"VEC3","normalized":true},{"bufferView":6,"byteOffset":21144,"componentType":5123,"count":360,"type":"SCALAR"},{"bufferView":1,"byteOffset":59656,"componentType":5123,"count":620,"type":"VEC3","min":[6382,13149,2115],"max":[7014,13528,2952]},{"bufferView":2,"byteOffset":12428,"componentType":5120,"count":620,"type":"VEC3","normalized":true},{"bufferView":3,"byteOffset":12428,"componentType":5123,"count":620,"type":"VEC2","normalized":true},{"bufferView":4,"byteOffset":12428,"componentType":5121,"count":620,"type":"VEC4"},{"bufferView":5,"byteOffset":12428,"componentType":5121,"count":620,"type":"VEC4","normalized":true},{"bufferView":1,"byteOffset":64616,"componentType":5122,"count":620,"type":"VEC3","min":[-193,-203,-40],"max":[24,6,325]},{"bufferView":7,"byteOffset":98388,"componentType":5120,"count":620,"type":"VEC3","normalized":true},{"bufferView":8,"byteOffset":80988,"componentType":5120,"count":620,"type":"VEC3","min":[0,0,0],"max":[0,0,0]},{"bufferView":7,"byteOffset":100868,"componentType":5120,"count":620,"type":"VEC3","normalized":true},{"bufferView":8,"byteOffset":83468,"componentType":5120,"count":620,"type":"VEC3","min":[0,0,0],"max":[0,0,0]},{"bufferView":7,"byteOffset":103348,"componentType":5120,"count":620,"type":"VEC3","normalized":true},{"bufferView":8,"byteOffset":85948,"componentType":5120,"count":620,"type":"VEC3","min":[-35,-14,-4],"max":[35,58,0]},{"bufferView":7,"byteOffset":105828,"componentType":5120,"count":620,"type":"VEC3","normalized":true},{"bufferView":1,"byteOffset":69576,"componentType":5122,"count":620,"type":"VEC3","min":[-32,-268,-104],"max":[14,4,2]},{"bufferView":7,"byteOffset":108308,"componentType":5120,"count":620,"type":"VEC3","normalized":true},{"bufferView":8,"byteOffset":88428,"componentType":5120,"count":620,"type":"VEC3","min":[0,0,0],"max":[0,0,0]},{"bufferView":7,"byteOffset":110788,"componentType":5120,"count":620,"type":"VEC3","normalized":true},{"bufferView":8,"byteOffset":90908,"componentType":5120,"count":620,"type":"VEC3","min":[0,0,0],"max":[0,0,0]},{"bufferView":7,"byteOffset":113268,"componentType":5120,"count":620,"type":"VEC3","normalized":true},{"bufferView":1,"byteOffset":74536,"componentType":5122,"count":620,"type":"VEC3","min":[-6,-193,-74],"max":[6,14,1]},{"bufferView":7,"byteOffset":115748,"componentType":5120,"count":620,"type":"VEC3","normalized":true},{"bufferView":8,"byteOffset":93388,"componentType":5120,"count":620,"type":"VEC3","min":[-19,-91,-35],"max":[19,51,7]},{"bufferView":7,"byteOffset":118228,"componentType":5120,"count":620,"type":"VEC3","normalized":true},{"bufferView":8,"byteOffset":95868,"componentType":5120,"count":620,"type":"VEC3","min":[-44,-44,-18],"max":[44,37,2]},{"bufferView":7,"byteOffset":120708,"componentType":5120,"count":620,"type":"VEC3","normalized":true},{"bufferView":8,"byteOffset":98348,"componentType":5120,"count":620,"type":"VEC3","min":[-41,-121,-36],"max":[41,2,2]},{"bufferView":7,"byteOffset":123188,"componentType":5120,"count":620,"type":"VEC3","normalized":true},{"bufferView":8,"byteOffset":100828,"componentType":5120,"count":620,"type":"VEC3","min":[-31,-102,-30],"max":[31,1,2]},{"bufferView":7,"byteOffset":125668,"componentType":5120,"count":620,"type":"VEC3","normalized":true},{"bufferView":8,"byteOffset":103308,"componentType":5120,"count":620,"type":"VEC3","min":[-9,-51,-17],"max":[8,18,7]},{"bufferView":7,"byteOffset":128148,"componentType":5120,"count":620,"type":"VEC3","normalized":true},{"bufferView":8,"byteOffset":105788,"componentType":5120,"count":620,"type":"VEC3","min":[-18,-18,-7],"max":[18,15,1]},{"bufferView":7,"byteOffset":130628,"componentType":5120,"count":620,"type":"VEC3","normalized":true},{"bufferView":8,"byteOffset":108268,"componentType":5120,"count":620,"type":"VEC3","min":[-11,-50,-18],"max":[8,0,7]},{"bufferView":7,"byteOffset":133108,"componentType":5120,"count":620,"type":"VEC3","normalized":true},{"bufferView":8,"byteOffset":110748,"componentType":5120,"count":620,"type":"VEC3","min":[-29,-43,-20],"max":[27,25,5]},{"bufferView":7,"byteOffset":135588,"componentType":5120,"count":620,"type":"VEC3","normalized":true},{"bufferView":8,"byteOffset":113228,"componentType":5120,"count":620,"type":"VEC3","min":[-28,-17,-8],"max":[10,2,2]},{"bufferView":7,"byteOffset":138068,"componentType":5120,"count":620,"type":"VEC3","normalized":true},{"bufferView":8,"byteOffset":115708,"componentType":5120,"count":620,"type":"VEC3","min":[-126,-107,-120],"max":[118,68,6]},{"bufferView":7,"byteOffset":140548,"componentType":5120,"count":620,"type":"VEC3","normalized":true},{"bufferView":8,"byteOffset":118188,"componentType":5120,"count":620,"type":"VEC3","min":[-110,-30,-7],"max":[110,105,27]},{"bufferView":7,"byteOffset":143028,"componentType":5120,"count":620,"type":"VEC3","normalized":true},{"bufferView":8,"byteOffset":120668,"componentType":5120,"count":620,"type":"VEC3","min":[0,0,0],"max":[0,0,0]},{"bufferView":7,"byteOffset":145508,"componentType":5120,"count":620,"type":"VEC3","normalized":true},{"bufferView":8,"byteOffset":123148,"componentType":5120,"count":620,"type":"VEC3","min":[-107,-58,-10],"max":[108,98,27]},{"bufferView":7,"byteOffset":147988,"componentType":5120,"count":620,"type":"VEC3","normalized":true},{"bufferView":8,"byteOffset":125628,"componentType":5120,"count":620,"type":"VEC3","min":[0,0,0],"max":[0,0,0]},{"bufferView":7,"byteOffset":150468,"componentType":5120,"count":620,"type":"VEC3","normalized":true},{"bufferView":8,"byteOffset":128108,"componentType":5120,"count":620,"type":"VEC3","min":[0,0,0],"max":[0,0,0]},{"bufferView":7,"byteOffset":152948,"componentType":5120,"count":620,"type":"VEC3","normalized":true},{"bufferView":8,"byteOffset":130588,"componentType":5120,"count":620,"type":"VEC3","min":[0,0,0],"max":[0,0,0]},{"bufferView":7,"byteOffset":155428,"componentType":5120,"count":620,"type":"VEC3","normalized":true},{"bufferView":8,"byteOffset":133068,"componentType":5120,"count":620,"type":"VEC3","min":[0,0,0],"max":[0,0,0]},{"bufferView":7,"byteOffset":157908,"componentType":5120,"count":620,"type":"VEC3","normalized":true},{"bufferView":8,"byteOffset":135548,"componentType":5120,"count":620,"type":"VEC3","min":[0,0,0],"max":[0,0,0]},{"bufferView":7,"byteOffset":160388,"componentType":5120,"count":620,"type":"VEC3","normalized":true},{"bufferView":8,"byteOffset":138028,"componentType":5120,"count":620,"type":"VEC3","min":[-14,-3,0],"max":[10,29,64]},{"bufferView":7,"byteOffset":162868,"componentType":5120,"count":620,"type":"VEC3","normalized":true},{"bufferView":6,"byteOffset":21864,"componentType":5123,"count":1746,"type":"SCALAR"},{"bufferView":1,"byteOffset":79496,"componentType":5123,"count":1618,"type":"VEC3","min":[0,0,749],"max":[13396,15465,2835]},{"bufferView":2,"byteOffset":14908,"componentType":5120,"count":1618,"type":"VEC3","normalized":true},{"bufferView":3,"byteOffset":14908,"componentType":5123,"count":1618,"type":"VEC2","normalized":true},{"bufferView":4,"byteOffset":14908,"componentType":5121,"count":1618,"type":"VEC4"},{"bufferView":5,"byteOffset":14908,"componentType":5121,"count":1618,"type":"VEC4","normalized":true},{"bufferView":6,"byteOffset":25356,"componentType":5123,"count":6906,"type":"SCALAR"},{"bufferView":1,"byteOffset":92440,"componentType":5123,"count":878,"type":"VEC3","min":[2144,7534,834],"max":[11252,13007,3325]},{"bufferView":2,"byteOffset":21380,"componentType":5120,"count":878,"type":"VEC3","normalized":true},{"bufferView":3,"byteOffset":21380,"componentType":5123,"count":878,"type":"VEC2","normalized":true},{"bufferView":4,"byteOffset":21380,"componentType":5121,"count":878,"type":"VEC4"},{"bufferView":5,"byteOffset":21380,"componentType":5121,"count":878,"type":"VEC4","normalized":true},{"bufferView":6,"byteOffset":39168,"componentType":5123,"count":3474,"type":"SCALAR"},{"bufferView":1,"byteOffset":99464,"componentType":5123,"count":112,"type":"VEC3","min":[4631,2088,914],"max":[8757,8291,3238]},{"bufferView":2,"byteOffset":24892,"componentType":5120,"count":112,"type":"VEC3","normalized":true},{"bufferView":3,"byteOffset":24892,"componentType":5123,"count":112,"type":"VEC2","normalized":true},{"bufferView":4,"byteOffset":24892,"componentType":5121,"count":112,"type":"VEC4"},{"bufferView":5,"byteOffset":24892,"componentType":5121,"count":112,"type":"VEC4","normalized":true},{"bufferView":6,"byteOffset":46116,"componentType":5123,"count":456,"type":"SCALAR"},{"bufferView":9,"byteOffset":0,"componentType":5126,"count":60,"type":"MAT4"}],"samplers":[{"magFilter":9729,"minFilter":9987}],"images":[{"uri":"hair_n.png"},{"uri":"hair_01.png"},{"uri":"face.png"},{"uri":"eye.png"},{"uri":"eyelash.png"},{"uri":"body.png"},{"uri":"upper_n.png"},{"uri":"shirt_n.png"}],"textures":[{"sampler":0,"source":0},{"sampler":0,"source":1},{"sampler":0,"source":2},{"sampler":0,"source":3},{"sampler":0,"source":4},{"sampler":0,"source":5},{"sampler":0,"source":6},{"sampler":0,"source":7}],"materials":[{"name":"hair_01-jj","pbrMetallicRoughness":{"baseColorTexture":{"index":1,"extensions":{"KHR_texture_transform":{"offset":[0.01076,0.01897],"scale":[36.91385,15.4386]}}},"roughnessFactor":0.42},"normalTexture":{"index":0,"extensions":{"KHR_texture_transform":{"offset":[0.01076,0.01897],"scale":[36.91385,15.4386]}}},"alphaMode":"BLEND","doubleSided":true,"extensions":{"KHR_materials_ior":{"ior":1.45},"KHR_materials_specular":{"specularFactor":0}}},{"name":"face-jj","pbrMetallicRoughness":{"baseColorTexture":{"index":2,"extensions":{"KHR_texture_transform":{"offset":[0.013,0.01269],"scale":[15.58313,15.71114]}}},"metallicFactor":0.5,"roughnessFactor":0.7},"doubleSided":true,"extensions":{"KHR_materials_ior":{"ior":1.45},"KHR_materials_specular":{"specularFactor":0}}},{"name":"eye-jj","pbrMetallicRoughness":{"baseColorTexture":{"index":3,"extensions":{"KHR_texture_transform":{"offset":[0.43145,0.74974],"scale":[7.89596,2.70338]}}},"metallicFactor":0.5,"roughnessFactor":0.218},"doubleSided":true,"extensions":{"KHR_materials_ior":{"ior":1.45},"KHR_materials_specular":{"specularFactor":0}}},{"name":"eyelash-jj","pbrMetallicRoughness":{"baseColorTexture":{"index":4,"extensions":{"KHR_texture_transform":{"offset":[0.02276,0.01563],"scale":[15.28286,15.44918]}}}},"alphaMode":"BLEND","doubleSided":true,"extensions":{"KHR_materials_ior":{"ior":1.45},"KHR_materials_specular":{"specularFactor":0}}},{"name":"mouth-jj","pbrMetallicRoughness":{"baseColorTexture":{"index":5,"extensions":{"KHR_texture_transform":{"offset":[0.52072,0.51005],"scale":[7.18221,7.76581]}}},"metallicFactor":0.23636,"roughnessFactor":0.98182},"doubleSided":true,"extensions":{"KHR_materials_ior":{"ior":1.45},"KHR_materials_specular":{"specularFactor":0}}},{"name":"body-jj","pbrMetallicRoughness":{"baseColorTexture":{"index":5,"extensions":{"KHR_texture_transform":{"offset":[0.03341,0.0101],"scale":[15.13416,11.82991]}}},"metallicFactor":0.5,"roughnessFactor":0.7},"doubleSided":true,"extensions":{"KHR_materials_ior":{"ior":1.45},"KHR_materials_specular":{"specularFactor":0}}},{"name":"top_02-jj","pbrMetallicRoughness":{"baseColorFactor":[0.08023,0.21222,0.99993,1],"metallicFactor":0.5,"roughnessFactor":0.85858},"normalTexture":{"index":6,"extensions":{"KHR_texture_transform":{"offset":[0.00283,0.00798],"scale":[15.94109,15.79864]}}},"doubleSided":true,"extensions":{"KHR_materials_ior":{"ior":1.45},"KHR_materials_specular":{"specularFactor":0}}},{"name":"bottom_02-jj","pbrMetallicRoughness":{"baseColorFactor":[0.01764,0.01764,0.01764,1],"metallicFactor":0.5,"roughnessFactor":0.7},"normalTexture":{"index":7,"extensions":{"KHR_texture_transform":{"offset":[0.01025,0.03763],"scale":[7.43661,15.23742]}}},"doubleSided":true,"extensions":{"KHR_materials_ior":{"ior":1.45},"KHR_materials_specular":{"specularFactor":0}}}],"meshes":[{"primitives":[{"attributes":{"COLOR_0":0,"POSITION":1,"NORMAL":2,"TEXCOORD_0":3,"JOINTS_0":4,"WEIGHTS_0":5},"indices":6,"material":0}]},{"primitives":[{"attributes":{"POSITION":7,"NORMAL":8,"TEXCOORD_0":9,"JOINTS_0":10,"WEIGHTS_0":11},"targets":[{"POSITION":12,"NORMAL":13},{"POSITION":14,"NORMAL":15},{"POSITION":16,"NORMAL":17},{"POSITION":18,"NORMAL":19},{"POSITION":20,"NORMAL":21},{"POSITION":22,"NORMAL":23},{"POSITION":24,"NORMAL":25},{"POSITION":26,"NORMAL":27},{"POSITION":28,"NORMAL":29},{"POSITION":30,"NORMAL":31},{"POSITION":32,"NORMAL":33},{"POSITION":34,"NORMAL":35},{"POSITION":36,"NORMAL":37},{"POSITION":38,"NORMAL":39},{"POSITION":40,"NORMAL":41},{"POSITION":42,"NORMAL":43},{"POSITION":44,"NORMAL":45},{"POSITION":46,"NORMAL":47},{"POSITION":48,"NORMAL":49},{"POSITION":50,"NORMAL":51},{"POSITION":52,"NORMAL":53},{"POSITION":54,"NORMAL":55},{"POSITION":56,"NORMAL":57},{"POSITION":58,"NORMAL":59},{"POSITION":60,"NORMAL":61},{"POSITION":62,"NORMAL":63},{"POSITION":64,"NORMAL":65}],"indices":66,"material":1},{"attributes":{"POSITION":67,"NORMAL":68,"TEXCOORD_0":69,"JOINTS_0":70,"WEIGHTS_0":71},"targets":[{"POSITION":72,"NORMAL":73},{"POSITION":74,"NORMAL":75},{"POSITION":76,"NORMAL":77},{"POSITION":78,"NORMAL":79},{"POSITION":80,"NORMAL":81},{"POSITION":82,"NORMAL":83},{"POSITION":84,"NORMAL":85},{"POSITION":86,"NORMAL":87},{"POSITION":88,"NORMAL":89},{"POSITION":90,"NORMAL":91},{"POSITION":92,"NORMAL":93},{"POSITION":94,"NORMAL":95},{"POSITION":96,"NORMAL":97},{"POSITION":98,"NORMAL":99},{"POSITION":100,"NORMAL":101},{"POSITION":102,"NORMAL":103},{"POSITION":104,"NORMAL":105},{"POSITION":106,"NORMAL":107},{"POSITION":108,"NORMAL":109},{"POSITION":110,"NORMAL":111},{"POSITION":112,"NORMAL":113},{"POSITION":114,"NORMAL":115},{"POSITION":116,"NORMAL":117},{"POSITION":118,"NORMAL":119},{"POSITION":120,"NORMAL":121},{"POSITION":122,"NORMAL":123},{"POSITION":124,"NORMAL":125}],"indices":126,"material":2},{"attributes":{"POSITION":127,"NORMAL":128,"TEXCOORD_0":129,"JOINTS_0":130,"WEIGHTS_0":131},"targets":[{"POSITION":132,"NORMAL":133},{"POSITION":134,"NORMAL":135},{"POSITION":136,"NORMAL":137},{"POSITION":138,"NORMAL":139},{"POSITION":140,"NORMAL":141},{"POSITION":142,"NORMAL":143},{"POSITION":144,"NORMAL":145},{"POSITION":146,"NORMAL":147},{"POSITION":148,"NORMAL":149},{"POSITION":150,"NORMAL":151},{"POSITION":152,"NORMAL":153},{"POSITION":154,"NORMAL":155},{"POSITION":156,"NORMAL":157},{"POSITION":158,"NORMAL":159},{"POSITION":160,"NORMAL":161},{"POSITION":162,"NORMAL":163},{"POSITION":164,"NORMAL":165},{"POSITION":166,"NORMAL":167},{"POSITION":168,"NORMAL":169},{"POSITION":170,"NORMAL":171},{"POSITION":172,"NORMAL":173},{"POSITION":174,"NORMAL":175},{"POSITION":176,"NORMAL":177},{"POSITION":178,"NORMAL":179},{"POSITION":180,"NORMAL":181},{"POSITION":182,"NORMAL":183},{"POSITION":184,"NORMAL":185}],"indices":186,"material":3},{"attributes":{"POSITION":187,"NORMAL":188,"TEXCOORD_0":189,"JOINTS_0":190,"WEIGHTS_0":191},"targets":[{"POSITION":192,"NORMAL":193},{"POSITION":194,"NORMAL":195},{"POSITION":196,"NORMAL":197},{"POSITION":198,"NORMAL":199},{"POSITION":200,"NORMAL":201},{"POSITION":202,"NORMAL":203},{"POSITION":204,"NORMAL":205},{"POSITION":206,"NORMAL":207},{"POSITION":208,"NORMAL":209},{"POSITION":210,"NORMAL":211},{"POSITION":212,"NORMAL":213},{"POSITION":214,"NORMAL":215},{"POSITION":216,"NORMAL":217},{"POSITION":218,"NORMAL":219},{"POSITION":220,"NORMAL":221},{"POSITION":222,"NORMAL":223},{"POSITION":224,"NORMAL":225},{"POSITION":226,"NORMAL":227},{"POSITION":228,"NORMAL":229},{"POSITION":230,"NORMAL":231},{"POSITION":232,"NORMAL":233},{"POSITION":234,"NORMAL":235},{"POSITION":236,"NORMAL":237},{"POSITION":238,"NORMAL":239},{"POSITION":240,"NORMAL":241},{"POSITION":242,"NORMAL":243},{"POSITION":244,"NORMAL":245}],"indices":246,"material":4}],"weights":[0,0,0,0,0,0,0,0,0,0,0,0,0,0,0,0,0,0,0,0,0,0,0,0,0,0,0],"extras":{"targetNames":["tongueOut","eyeBlinkRight","eyeBlinkLeft","smile","anger","frownRight","frownLeft","A","E","I","O","U","L","F","B","T","pout","laugh","grinning","stare","simper","lookingUp","lookingDown","lookRight","lookLeft","frown","cheekBlowing"]}},{"primitives":[{"attributes":{"POSITION":247,"NORMAL":248,"TEXCOORD_0":249,"JOINTS_0":250,"WEIGHTS_0":251},"indices":252,"material":5}]},{"primitives":[{"attributes":{"POSITION":253,"NORMAL":254,"TEXCOORD_0":255,"JOINTS_0":256,"WEIGHTS_0":257},"indices":258,"material":6},{"attributes":{"POSITION":259,"NORMAL":260,"TEXCOORD_0":261,"JOINTS_0":262,"WEIGHTS_0":263},"indices":264,"material":7}]}],"skins":[{"name":"Bip001","joints":[63,62,53,52,51,4,27,24,21,20,7,6,5,10,9,8,13,12,11,16,15,14,19,18,17,23,22,26,25,50,47,44,43,30,29,28,33,32,31,36,35,34,39,38,37,42,41,40,46,45,49,48,57,56,55,54,61,60,59,58],"inverseBindMatrices":265}],"nodes":[{"mesh":0,"skin":0,"translation":[-0.52053,0.41791,-0.13516],"scale":[8E-05,8E-05,8E-05]},{"mesh":1,"skin":0,"translation":[-0.52053,0.41791,-0.13516],"scale":[8E-05,8E-05,8E-05]},{"mesh":2,"skin":0,"translation":[-0.52053,0.41791,-0.13516],"scale":[8E-05,8E-05,8E-05]},{"mesh":3,"skin":0,"translation":[-0.52053,0.41791,-0.13516],"scale":[8E-05,8E-05,8E-05]},{"name":"Bip001 Head","translation":[6.02806,0.00012,0.0],"rotation":[0.0,0.0,0.00947,0.99996],"scale":[1.0,1,1]},{"name":"Bip001 L Finger02","translation":[1.66277,-1E-05,-2E-05],"rotation":[0.0,0.0,-0.04073,0.99917],"scale":[1,1,1.0]},{"name":"Bip001 L Finger01","translation":[4.27743,0.0,7E-05],"rotation":[0.0,0.0,0.04385,0.99904],"scale":[1.0,1.0,1],"children":[5]},{"name":"Bip001 L Finger0","translation":[0.95383,1.10568,-1.46024],"rotation":[0.78506,0.30331,-0.05547,0.53722],"scale":[1,1.0,1],"children":[6]},{"name":"Bip001 L Finger12","translation":[1.6263,-1E-05,0.0],"rotation":[0.0,0.0,0.04652,0.99892],"scale":[1.0,1,1.0]},{"name":"Bip001 L Finger11","translation":[2.80088,0.0,0.0],"rotation":[0.0,0.0,0.10851,0.99409],"scale":[1.0,1,1.0],"children":[8]},{"name":"Bip001 L Finger1","translation":[6.97778,0.03287,-1.82501],"rotation":[0.01562,-0.01104,0.06995,0.99737],"scale":[1.0,1.0,1],"children":[9]},{"name":"Bip001 L Finger22","translation":[1.77493,1E-05,0.0],"rotation":[0.0,0.0,-0.04413,0.99903],"scale":[1.0,1.0,1]},{"name":"Bip001 L Finger21","translation":[3.04286,-4E-05,0.0],"rotation":[0.0,0.0,0.19896,0.98001],"scale":[1,1,1.0],"children":[11]},{"name":"Bip001 L Finger2","translation":[6.89672,-0.11387,-0.4101],"rotation":[0.00017,0.00185,0.10147,0.99484],"scale":[1.0,1.0,1],"children":[12]},{"name":"Bip001 L Finger32","translation":[1.6245,0.0,-1E-05],"rotation":[0.0,0.0,0.00863,0.99996],"scale":[1,1.0,1.0]},{"name":"Bip001 L Finger31","translation":[2.85819,0.0,0.0],"rotation":[-0.00192,-0.00534,0.22455,0.97445],"scale":[1.0,1.0,1.0],"children":[14]},{"name":"Bip001 L Finger3","translation":[6.7617,-0.05628,1.10219],"rotation":[-0.06443,-0.00367,0.13633,0.98856],"scale":[1.0,1.0,1],"children":[15]},{"name":"Bip001 L Finger42","translation":[1.32885,2E-05,0.0],"rotation":[0.0,0.0,0.04377,0.99904],"scale":[1.0,1,1.0]},{"name":"Bip001 L Finger41","translation":[2.48478,-2E-05,0.0],"rotation":[0.00095,0.00607,0.1218,0.99254],"scale":[1.0,1,1],"children":[17]},{"name":"Bip001 L Finger4","translation":[5.99048,0.37475,2.34807],"rotation":[-0.09886,-0.02096,0.16402,0.98127],"scale":[1.0,1.0,1.0],"children":[18]},{"name":"Bip001 L Hand","translation":[21.79165,0.0,1E-05],"rotation":[-0.72678,-0.04181,-0.00084,0.6856],"scale":[1,1.0,1.0],"children":[7,10,13,16,19]},{"name":"Bip001 L Forearm","translation":[21.62451,-0.00049,7E-05],"rotation":[0.0,0.0,0.00358,0.99999],"scale":[1.0,1.0,1.0],"children":[20]},{"name":"Bip001 L ForeTwist1","translation":[10.89581,0.0,0.0],"rotation":[-0.01001,0.0,0.0,0.99995],"scale":[1.0,1,1]},{"name":"Bip001 L ForeTwist","translation":[21.62451,-0.00049,0.0001],"rotation":[-0.01001,-4E-05,0.00358,0.99994],"scale":[1.0,1.0,1.0],"children":[22]},{"name":"Bip001 L UpperArm","translation":[7.43504,0.00012,-1E-05],"rotation":[0.12585,0.29523,0.03005,0.94663],"scale":[1.0,1.0,1],"children":[21,23]},{"name":"Bip001 LUpArmTwist1","translation":[10.81224,-0.00012,1E-05],"rotation":[0.0,0.0,0.0,1],"scale":[1.0,1.0,1.0]},{"name":"Bip001 LUpArmTwist","translation":[7.43504,0.00012,-1E-05],"rotation":[0.12585,0.29523,0.03005,0.94663],"scale":[1.0,1,1],"children":[25]},{"name":"Bip001 L Clavicle","translation":[-4.57459,0.53351,4.62661],"rotation":[0.62888,-0.1399,0.74972,0.15117],"scale":[1.0,1,1.0],"children":[24,26]},{"name":"Bip001 R Finger02","translation":[1.66278,-3E-05,3E-05],"rotation":[0.0,0.0,-0.04073,0.99917]},{"name":"Bip001 R Finger01","translation":[4.27743,-9E-05,-2E-05],"rotation":[0.0,0.0,0.04385,0.99904],"scale":[1.0,1,1],"children":[28]},{"name":"Bip001 R Finger0","translation":[0.95385,1.1057,1.46031],"rotation":[-0.78506,-0.30331,-0.05547,0.53722],"scale":[1.0,1.0,1.0],"children":[29]},{"name":"Bip001 R Finger12","translation":[1.62631,-2E-05,0.0],"rotation":[0.0,0.0,0.04652,0.99892],"scale":[1.0,1.0,1]},{"name":"Bip001 R Finger11","translation":[2.80085,-5E-05,0.0],"rotation":[0.0,0.0,0.10851,0.99409],"scale":[1.0,1.0,1],"children":[31]},{"name":"Bip001 R Finger1","translation":[6.97781,0.03291,1.82508],"rotation":[-0.01562,0.01104,0.06995,0.99737],"scale":[1.0,1,1],"children":[32]},{"name":"Bip001 R Finger22","translation":[1.77494,2E-05,0.0],"rotation":[0.0,0.0,-0.04413,0.99903],"scale":[1.0,1.0,1.0]},{"name":"Bip001 R Finger21","translation":[3.04285,-0.00012,0.0],"rotation":[0.0,0.0,0.19896,0.98001],"scale":[1.0,1.0,1.0],"children":[34]},{"name":"Bip001 R Finger2","translation":[6.89674,-0.11385,0.41017],"rotation":[-0.00017,-0.00185,0.10147,0.99484],"scale":[1.0,1.0,1.0],"children":[35]},{"name":"Bip001 R Finger32","translation":[1.62453,1E-05,0.0],"rotation":[0.0,0.0,0.00863,0.99996],"scale":[1.0,1.0,1.0]},{"name":"Bip001 R Finger31","translation":[2.85821,-2E-05,1E-05],"rotation":[0.00192,0.00534,0.22455,0.97445],"scale":[1.0,1.0,1],"children":[37]},{"name":"Bip001 R Finger3","translation":[6.7617,-0.05626,-1.10212],"rotation":[0.06443,0.00367,0.13633,0.98856],"scale":[1,1.0,1],"children":[38]},{"name":"Bip001 R Finger42","translation":[1.32885,0.0,0.0],"rotation":[0.0,0.0,0.04377,0.99904],"scale":[1.0,1.0,1]},{"name":"Bip001 R Finger41","translation":[2.48478,-4E-05,1E-05],"rotation":[-0.00095,-0.00608,0.1218,0.99254],"scale":[1.0,1.0,1],"children":[40]},{"name":"Bip001 R Finger4","translation":[5.99048,0.37477,-2.34799],"rotation":[0.09886,0.02096,0.16402,0.98127],"scale":[1.0,1.0,1.0],"children":[41]},{"name":"Bip001 R Hand","translation":[21.79167,0.00024,-4E-05],"rotation":[0.72678,0.04181,-0.00084,0.6856],"scale":[1.0,1,1],"children":[30,33,36,39,42]},{"name":"Bip001 R Forearm","translation":[21.62458,0.0,8E-05],"rotation":[0.0,0.0,0.00358,0.99999],"scale":[1.0,1.0,1.0],"children":[43]},{"name":"Bip001 R ForeTwist1","translation":[10.89587,0.00024,0.0],"rotation":[0.01001,0.0,0.0,0.99995],"scale":[1.0,1.0,1]},{"name":"Bip001 R ForeTwist","translation":[21.62454,0.0,6E-05],"rotation":[0.01001,4E-05,0.00358,0.99994],"scale":[1.0,1.0,1],"children":[45]},{"name":"Bip001 R UpperArm","translation":[7.435,-6E-05,-9E-05],"rotation":[-0.12585,-0.29523,0.03005,0.94663],"scale":[1.0,1.0,1.0],"children":[44,46]},{"name":"Bip001 RUpArmTwist1","translation":[10.81229,0.0,3E-05],"rotation":[0.0,0.0,0.0,1],"scale":[1.0,1,1.0]},{"name":"Bip001 RUpArmTwist","translation":[7.43501,-6E-05,-7E-05],"rotation":[-0.12585,-0.29523,0.03005,0.94663],"scale":[1.0,1.0,1.0],"children":[48]},{"name":"Bip001 R Clavicle","translation":[-4.57462,0.53351,-4.62661],"rotation":[-0.62888,0.1399,0.74972,0.15118],"scale":[1.0,1.0,1.0],"children":[47,49]},{"name":"Bip001 Neck","translation":[16.04872,-0.41846,-1E-05],"rotation":[0.0,0.0,0.20537,0.97868],"scale":[1.0,1.0,1],"children":[4,27,50]},{"name":"Bip001 Spine2","translation":[8.76824,-0.01062,0.0],"rotation":[0.0,0.0,-0.11019,0.99391],"children":[51]},{"name":"Bip001 Spine1","translation":[11.02047,-0.00696,0.0],"rotation":[0.0,0.0,-0.06191,0.99808],"scale":[1,1.0,1],"children":[52]},{"name":"Bip001 L Toe0","translation":[12.4443,7.6051,0.0],"rotation":[0.0,0.0,0.70711,0.70711],"scale":[1.0,1,1.0]},{"name":"Bip001 L Foot","translation":[41.11436,0.0,-1E-05],"rotation":[0.01312,-0.04976,0.026,0.99834],"scale":[1.0,1.0,1.0],"children":[54]},{"name":"Bip001 L Calf","translation":[38.51873,0.0,1E-05],"rotation":[0.0,0.0,-0.0319,0.99949],"scale":[1.0,1,1],"children":[55]},{"name":"Bip001 L Thigh","translation":[-9.29664,-1.54944,7.23998],"rotation":[-0.05617,-0.99716,-0.0038,0.04996],"children":[56]},{"name":"Bip001 R Toe0","translation":[12.44431,7.6051,0.0],"rotation":[0.0,0.0,0.70711,0.70711],"scale":[1.0,1.0,1.0]},{"name":"Bip001 R Foot","translation":[41.11431,0.0,2E-05],"rotation":[-0.01312,0.04976,0.026,0.99834],"scale":[1.0,1.0,1.0],"children":[58]},{"name":"Bip001 R Calf","translation":[38.51877,-0.00049,-1E-05],"rotation":[0.0,0.0,-0.0319,0.99949],"scale":[1,1,1.0],"children":[59]},{"name":"Bip001 R Thigh","translation":[-9.29666,-1.54944,-7.23999],"rotation":[0.05617,0.99716,-0.0038,0.04996],"scale":[1,1.0,1],"children":[60]},{"name":"Bip001 Spine","translation":[9.17711,2.14673,0.0],"rotation":[0.0,0.0,0.03233,0.99948],"children":[53,57,61]},{"name":"Bip001 Pelvis","translation":[0.0,0,-1.24239638E-15],"rotation":[-0.71941,-0.69459,0.0,0.0],"scale":[1.0,1.0,1.0],"children":[62]},{"name":"Hair_01","children":[0]},{"name":"Head","children":[1]},{"name":"LegsFeet_01","children":[2]},{"name":"Trunk01_glb_baking","children":[3]},{"name":"Bip001","translation":[0,0.92688,0],"rotation":[0,-0.70711,0,0.70711],"scale":[0.01,0.01,0.01],"children":[64,65,66,67,63]}],"scenes":[{"name":"Scene","nodes":[68]}],"scene":0}